<mxfile host="Electron" modified="2023-12-13T15:36:23.596Z" agent="Mozilla/5.0 (Windows NT 10.0; Win64; x64) AppleWebKit/537.36 (KHTML, like Gecko) draw.io/22.0.2 Chrome/114.0.5735.289 Electron/25.8.4 Safari/537.36" etag="H8eFeYnQyG0yTa1KEgvN" version="22.0.2" type="device" pages="2">
  <diagram id="wFE0QG_FPsp0jaGvCLVb" name="Jaarindeling_1">
    <mxGraphModel dx="1126" dy="1168" grid="1" gridSize="10" guides="1" tooltips="1" connect="1" arrows="1" fold="1" page="1" pageScale="1" pageWidth="850" pageHeight="1100" math="0" shadow="0">
      <root>
        <mxCell id="0" />
        <mxCell id="1" parent="0" />
        <mxCell id="_5mSTuPxr-ZiKRkBDSY7-1" value="" style="swimlane;fontStyle=2;childLayout=stackLayout;horizontal=1;startSize=28;horizontalStack=1;resizeParent=1;resizeParentMax=0;resizeLast=0;collapsible=0;marginBottom=0;swimlaneFillColor=none;fontFamily=Permanent Marker;fontSize=16;points=[];verticalAlign=top;stackBorder=0;resizable=1;strokeWidth=2;disableMultiStroke=1;" parent="1" vertex="1">
          <mxGeometry x="290" y="140" width="180" height="2350" as="geometry" />
        </mxCell>
        <object label="Volgorde van Activiteiten" status="New" id="_5mSTuPxr-ZiKRkBDSY7-2">
          <mxCell style="swimlane;strokeWidth=2;fontFamily=Permanent Marker;html=0;startSize=1;verticalAlign=bottom;spacingBottom=5;points=[];childLayout=stackLayout;stackBorder=20;stackSpacing=20;resizeLast=0;resizeParent=1;horizontalStack=0;collapsible=0;strokeColor=none;fillStyle=solid;fillColor=#A0522D;" parent="_5mSTuPxr-ZiKRkBDSY7-1" vertex="1">
            <mxGeometry y="28" width="180" height="2322" as="geometry" />
          </mxCell>
        </object>
        <object label="Kickoff:&lt;br&gt;Overview&lt;br&gt;Teamvorming" placeholders="1" id="_5mSTuPxr-ZiKRkBDSY7-3">
          <mxCell style="whiteSpace=wrap;html=1;strokeWidth=2;fillColor=#f5f5f5;fontStyle=1;spacingTop=0;rounded=1;arcSize=9;points=[];fontFamily=Permanent Marker;hachureGap=8;fillWeight=1;strokeColor=#666666;fontColor=#333333;" parent="_5mSTuPxr-ZiKRkBDSY7-2" vertex="1">
            <mxGeometry x="20" y="21" width="140" height="80" as="geometry" />
          </mxCell>
        </object>
        <object label="Kennismaking met &quot;Klanten / Bedrijven&quot;,&lt;br&gt;Hun opdracht in grote lijnen" placeholders="1" id="_5mSTuPxr-ZiKRkBDSY7-4">
          <mxCell style="whiteSpace=wrap;html=1;strokeWidth=2;fillColor=#f5f5f5;fontStyle=1;spacingTop=0;rounded=1;arcSize=9;points=[];fontFamily=Permanent Marker;hachureGap=8;fillWeight=1;strokeColor=#666666;fontColor=#333333;" parent="_5mSTuPxr-ZiKRkBDSY7-2" vertex="1">
            <mxGeometry x="20" y="121" width="140" height="80" as="geometry" />
          </mxCell>
        </object>
        <object label="Inleiding System Engineering" placeholders="1" id="_5mSTuPxr-ZiKRkBDSY7-5">
          <mxCell style="whiteSpace=wrap;html=1;strokeWidth=2;fillColor=#ffe6cc;fontStyle=1;spacingTop=0;rounded=1;arcSize=9;points=[];fontFamily=Permanent Marker;hachureGap=8;fillWeight=1;strokeColor=#d79b00;" parent="_5mSTuPxr-ZiKRkBDSY7-2" vertex="1">
            <mxGeometry x="20" y="221" width="140" height="80" as="geometry" />
          </mxCell>
        </object>
        <object label="Systeem Context&lt;br&gt;Diagram,&lt;br&gt;Identificatie van Stakeholders en Key Drivers" placeholders="1" id="HKqX8OT6sRfa5kSOksuR-6">
          <mxCell style="whiteSpace=wrap;html=1;strokeWidth=2;fillColor=#ffe6cc;fontStyle=1;spacingTop=0;rounded=1;arcSize=9;points=[];fontFamily=Permanent Marker;hachureGap=8;fillWeight=1;strokeColor=#d79b00;" parent="_5mSTuPxr-ZiKRkBDSY7-2" vertex="1">
            <mxGeometry x="20" y="321" width="140" height="80" as="geometry" />
          </mxCell>
        </object>
        <object label="Prioritering van Stakeholders,&amp;nbsp;&lt;br&gt;Formulering van application Drivers" placeholders="1" id="HKqX8OT6sRfa5kSOksuR-5">
          <mxCell style="whiteSpace=wrap;html=1;strokeWidth=2;fillColor=#ffe6cc;fontStyle=1;spacingTop=0;rounded=1;arcSize=9;points=[];fontFamily=Permanent Marker;hachureGap=8;fillWeight=1;strokeColor=#d79b00;" parent="_5mSTuPxr-ZiKRkBDSY7-2" vertex="1">
            <mxGeometry x="20" y="421" width="140" height="80" as="geometry" />
          </mxCell>
        </object>
        <object label="Key-driver Graph opstellen" placeholders="1" id="HKqX8OT6sRfa5kSOksuR-7">
          <mxCell style="whiteSpace=wrap;html=1;strokeWidth=2;fillColor=#ffe6cc;fontStyle=1;spacingTop=0;rounded=1;arcSize=9;points=[];fontFamily=Permanent Marker;hachureGap=8;fillWeight=1;strokeColor=#d79b00;" parent="_5mSTuPxr-ZiKRkBDSY7-2" vertex="1">
            <mxGeometry x="20" y="521" width="140" height="80" as="geometry" />
          </mxCell>
        </object>
        <object label="Functional Requirements opstellen" placeholders="1" id="HKqX8OT6sRfa5kSOksuR-8">
          <mxCell style="whiteSpace=wrap;html=1;strokeWidth=2;fillColor=#ffe6cc;fontStyle=1;spacingTop=0;rounded=1;arcSize=9;points=[];fontFamily=Permanent Marker;hachureGap=8;fillWeight=1;strokeColor=#d79b00;" parent="_5mSTuPxr-ZiKRkBDSY7-2" vertex="1">
            <mxGeometry x="20" y="621" width="140" height="80" as="geometry" />
          </mxCell>
        </object>
        <object label="Non Functional Requirements opstellen" placeholders="1" id="HKqX8OT6sRfa5kSOksuR-9">
          <mxCell style="whiteSpace=wrap;html=1;strokeWidth=2;fillColor=#ffe6cc;fontStyle=1;spacingTop=0;rounded=1;arcSize=9;points=[];fontFamily=Permanent Marker;hachureGap=8;fillWeight=1;strokeColor=#d79b00;" parent="_5mSTuPxr-ZiKRkBDSY7-2" vertex="1">
            <mxGeometry x="20" y="721" width="140" height="80" as="geometry" />
          </mxCell>
        </object>
        <object label="Constraints opstellen" placeholders="1" id="HKqX8OT6sRfa5kSOksuR-10">
          <mxCell style="whiteSpace=wrap;html=1;strokeWidth=2;fillColor=#ffe6cc;fontStyle=1;spacingTop=0;rounded=1;arcSize=9;points=[];fontFamily=Permanent Marker;hachureGap=8;fillWeight=1;strokeColor=#d79b00;" parent="_5mSTuPxr-ZiKRkBDSY7-2" vertex="1">
            <mxGeometry x="20" y="821" width="140" height="80" as="geometry" />
          </mxCell>
        </object>
        <object label="Use Case Diagram,&lt;br&gt;Use Case beschrijvingen" placeholders="1" id="HKqX8OT6sRfa5kSOksuR-11">
          <mxCell style="whiteSpace=wrap;html=1;strokeWidth=2;fillColor=#ffe6cc;fontStyle=1;spacingTop=0;rounded=1;arcSize=9;points=[];fontFamily=Permanent Marker;hachureGap=8;fillWeight=1;strokeColor=#d79b00;" parent="_5mSTuPxr-ZiKRkBDSY7-2" vertex="1">
            <mxGeometry x="20" y="921" width="140" height="80" as="geometry" />
          </mxCell>
        </object>
        <object label="ActivityDiagrammen" placeholders="1" id="HKqX8OT6sRfa5kSOksuR-12">
          <mxCell style="whiteSpace=wrap;html=1;strokeWidth=2;fillColor=#ffe6cc;fontStyle=1;spacingTop=0;rounded=1;arcSize=9;points=[];fontFamily=Permanent Marker;hachureGap=8;fillWeight=1;strokeColor=#d79b00;" parent="_5mSTuPxr-ZiKRkBDSY7-2" vertex="1">
            <mxGeometry x="20" y="1021" width="140" height="80" as="geometry" />
          </mxCell>
        </object>
        <object label="Logische View" placeholders="1" id="HKqX8OT6sRfa5kSOksuR-26">
          <mxCell style="whiteSpace=wrap;html=1;strokeWidth=2;fillColor=#ffe6cc;fontStyle=1;spacingTop=0;rounded=1;arcSize=9;points=[];fontFamily=Permanent Marker;hachureGap=8;fillWeight=1;strokeColor=#d79b00;" parent="_5mSTuPxr-ZiKRkBDSY7-2" vertex="1">
            <mxGeometry x="20" y="1121" width="140" height="80" as="geometry" />
          </mxCell>
        </object>
        <object label="Tracability Diagram naar elementen Logische View" placeholders="1" id="HKqX8OT6sRfa5kSOksuR-27">
          <mxCell style="whiteSpace=wrap;html=1;strokeWidth=2;fillColor=#ffe6cc;fontStyle=1;spacingTop=0;rounded=1;arcSize=9;points=[];fontFamily=Permanent Marker;hachureGap=8;fillWeight=1;strokeColor=#d79b00;" parent="_5mSTuPxr-ZiKRkBDSY7-2" vertex="1">
            <mxGeometry x="20" y="1221" width="140" height="80" as="geometry" />
          </mxCell>
        </object>
        <object label="Physical View /&lt;br&gt;Block Diagram" placeholders="1" id="HKqX8OT6sRfa5kSOksuR-28">
          <mxCell style="whiteSpace=wrap;html=1;strokeWidth=2;fillColor=#ffe6cc;fontStyle=1;spacingTop=0;rounded=1;arcSize=9;points=[];fontFamily=Permanent Marker;hachureGap=8;fillWeight=1;strokeColor=#d79b00;" parent="_5mSTuPxr-ZiKRkBDSY7-2" vertex="1">
            <mxGeometry x="20" y="1321" width="140" height="80" as="geometry" />
          </mxCell>
        </object>
        <mxCell id="HKqX8OT6sRfa5kSOksuR-77" style="edgeStyle=orthogonalEdgeStyle;rounded=0;orthogonalLoop=1;jettySize=auto;html=1;" parent="_5mSTuPxr-ZiKRkBDSY7-2" source="HKqX8OT6sRfa5kSOksuR-29" target="HKqX8OT6sRfa5kSOksuR-30" edge="1">
          <mxGeometry relative="1" as="geometry" />
        </mxCell>
        <mxCell id="HKqX8OT6sRfa5kSOksuR-84" style="edgeStyle=orthogonalEdgeStyle;rounded=0;orthogonalLoop=1;jettySize=auto;html=1;" parent="_5mSTuPxr-ZiKRkBDSY7-2" source="HKqX8OT6sRfa5kSOksuR-82" target="HKqX8OT6sRfa5kSOksuR-83" edge="1">
          <mxGeometry relative="1" as="geometry" />
        </mxCell>
        <object label="Use Case Diagram,&lt;br&gt;Use Case beschrijvingen" placeholders="1" id="HKqX8OT6sRfa5kSOksuR-82">
          <mxCell style="whiteSpace=wrap;html=1;strokeWidth=2;fillColor=#fff2cc;fontStyle=1;spacingTop=0;rounded=1;arcSize=9;points=[];fontFamily=Permanent Marker;hachureGap=8;fillWeight=1;strokeColor=#d6b656;" parent="_5mSTuPxr-ZiKRkBDSY7-2" vertex="1">
            <mxGeometry x="20" y="1421" width="140" height="80" as="geometry" />
          </mxCell>
        </object>
        <mxCell id="HKqX8OT6sRfa5kSOksuR-85" style="edgeStyle=orthogonalEdgeStyle;rounded=0;orthogonalLoop=1;jettySize=auto;html=1;" parent="_5mSTuPxr-ZiKRkBDSY7-2" source="HKqX8OT6sRfa5kSOksuR-83" target="HKqX8OT6sRfa5kSOksuR-29" edge="1">
          <mxGeometry relative="1" as="geometry" />
        </mxCell>
        <object label="ActivityDiagrammen" placeholders="1" id="HKqX8OT6sRfa5kSOksuR-83">
          <mxCell style="whiteSpace=wrap;html=1;strokeWidth=2;fillColor=#fff2cc;fontStyle=1;spacingTop=0;rounded=1;arcSize=9;points=[];fontFamily=Permanent Marker;hachureGap=8;fillWeight=1;strokeColor=#d6b656;" parent="_5mSTuPxr-ZiKRkBDSY7-2" vertex="1">
            <mxGeometry x="20" y="1521" width="140" height="80" as="geometry" />
          </mxCell>
        </object>
        <object label="Object Model" placeholders="1" id="HKqX8OT6sRfa5kSOksuR-29">
          <mxCell style="whiteSpace=wrap;html=1;strokeWidth=2;fillColor=#fff2cc;fontStyle=1;spacingTop=0;rounded=1;arcSize=9;points=[];fontFamily=Permanent Marker;hachureGap=8;fillWeight=1;strokeColor=#d6b656;" parent="_5mSTuPxr-ZiKRkBDSY7-2" vertex="1">
            <mxGeometry x="20" y="1621" width="140" height="80" as="geometry" />
          </mxCell>
        </object>
        <mxCell id="HKqX8OT6sRfa5kSOksuR-78" style="edgeStyle=orthogonalEdgeStyle;rounded=0;orthogonalLoop=1;jettySize=auto;html=1;" parent="_5mSTuPxr-ZiKRkBDSY7-2" source="HKqX8OT6sRfa5kSOksuR-30" target="HKqX8OT6sRfa5kSOksuR-33" edge="1">
          <mxGeometry relative="1" as="geometry" />
        </mxCell>
        <object label="Klassediagram /&lt;br&gt;Block Diagram" placeholders="1" id="HKqX8OT6sRfa5kSOksuR-30">
          <mxCell style="whiteSpace=wrap;html=1;strokeWidth=2;fillColor=#fff2cc;fontStyle=1;spacingTop=0;rounded=1;arcSize=9;points=[];fontFamily=Permanent Marker;hachureGap=8;fillWeight=1;strokeColor=#d6b656;" parent="_5mSTuPxr-ZiKRkBDSY7-2" vertex="1">
            <mxGeometry x="20" y="1721" width="140" height="80" as="geometry" />
          </mxCell>
        </object>
        <mxCell id="HKqX8OT6sRfa5kSOksuR-79" style="edgeStyle=orthogonalEdgeStyle;rounded=0;orthogonalLoop=1;jettySize=auto;html=1;" parent="_5mSTuPxr-ZiKRkBDSY7-2" source="HKqX8OT6sRfa5kSOksuR-33" target="HKqX8OT6sRfa5kSOksuR-31" edge="1">
          <mxGeometry relative="1" as="geometry" />
        </mxCell>
        <object label="Internal Block Diagram" placeholders="1" id="HKqX8OT6sRfa5kSOksuR-33">
          <mxCell style="whiteSpace=wrap;html=1;strokeWidth=2;fillColor=#ffe6cc;fontStyle=1;spacingTop=0;rounded=1;arcSize=9;points=[];fontFamily=Permanent Marker;hachureGap=8;fillWeight=1;strokeColor=#d79b00;" parent="_5mSTuPxr-ZiKRkBDSY7-2" vertex="1">
            <mxGeometry x="20" y="1821" width="140" height="80" as="geometry" />
          </mxCell>
        </object>
        <mxCell id="HKqX8OT6sRfa5kSOksuR-80" style="edgeStyle=orthogonalEdgeStyle;rounded=0;orthogonalLoop=1;jettySize=auto;html=1;" parent="_5mSTuPxr-ZiKRkBDSY7-2" source="HKqX8OT6sRfa5kSOksuR-31" target="HKqX8OT6sRfa5kSOksuR-32" edge="1">
          <mxGeometry relative="1" as="geometry" />
        </mxCell>
        <object label="STD&#39;s" placeholders="1" id="HKqX8OT6sRfa5kSOksuR-31">
          <mxCell style="whiteSpace=wrap;html=1;strokeWidth=2;fillColor=#fff2cc;fontStyle=1;spacingTop=0;rounded=1;arcSize=9;points=[];fontFamily=Permanent Marker;hachureGap=8;fillWeight=1;strokeColor=#d6b656;" parent="_5mSTuPxr-ZiKRkBDSY7-2" vertex="1">
            <mxGeometry x="20" y="1921" width="140" height="80" as="geometry" />
          </mxCell>
        </object>
        <mxCell id="HKqX8OT6sRfa5kSOksuR-149" style="edgeStyle=orthogonalEdgeStyle;rounded=0;orthogonalLoop=1;jettySize=auto;html=1;" parent="_5mSTuPxr-ZiKRkBDSY7-2" source="HKqX8OT6sRfa5kSOksuR-32" target="HKqX8OT6sRfa5kSOksuR-147" edge="1">
          <mxGeometry relative="1" as="geometry" />
        </mxCell>
        <object label="Code Schrijven" placeholders="1" id="HKqX8OT6sRfa5kSOksuR-32">
          <mxCell style="whiteSpace=wrap;html=1;strokeWidth=2;fillColor=#fff2cc;fontStyle=1;spacingTop=0;rounded=1;arcSize=9;points=[];fontFamily=Permanent Marker;hachureGap=8;fillWeight=1;strokeColor=#d6b656;" parent="_5mSTuPxr-ZiKRkBDSY7-2" vertex="1">
            <mxGeometry x="20" y="2021" width="140" height="80" as="geometry" />
          </mxCell>
        </object>
        <mxCell id="HKqX8OT6sRfa5kSOksuR-76" value="" style="endArrow=none;html=1;rounded=1;edgeStyle=elbowEdgeStyle;elbow=vertical;endFill=0;startArrow=classic;startFill=1;" parent="_5mSTuPxr-ZiKRkBDSY7-2" source="HKqX8OT6sRfa5kSOksuR-82" target="HKqX8OT6sRfa5kSOksuR-148" edge="1">
          <mxGeometry width="50" height="50" relative="1" as="geometry">
            <mxPoint x="120" y="1612" as="sourcePoint" />
            <mxPoint x="170" y="1562" as="targetPoint" />
            <Array as="points">
              <mxPoint x="-30" y="1652" />
            </Array>
          </mxGeometry>
        </mxCell>
        <mxCell id="HKqX8OT6sRfa5kSOksuR-81" value="Voor elk&lt;br&gt;sub-systeem&lt;br&gt;Eerst ESP32,&lt;br&gt;Dan backend,&lt;br&gt;Dan frontend" style="edgeLabel;html=1;align=center;verticalAlign=middle;resizable=0;points=[];" parent="HKqX8OT6sRfa5kSOksuR-76" vertex="1" connectable="0">
          <mxGeometry x="-0.04" relative="1" as="geometry">
            <mxPoint x="-10" as="offset" />
          </mxGeometry>
        </mxCell>
        <mxCell id="HKqX8OT6sRfa5kSOksuR-150" style="edgeStyle=orthogonalEdgeStyle;rounded=0;orthogonalLoop=1;jettySize=auto;html=1;" parent="_5mSTuPxr-ZiKRkBDSY7-2" source="HKqX8OT6sRfa5kSOksuR-147" target="HKqX8OT6sRfa5kSOksuR-148" edge="1">
          <mxGeometry relative="1" as="geometry" />
        </mxCell>
        <object label="Code Implementeren" placeholders="1" id="HKqX8OT6sRfa5kSOksuR-147">
          <mxCell style="whiteSpace=wrap;html=1;strokeWidth=2;fillColor=#fff2cc;fontStyle=1;spacingTop=0;rounded=1;arcSize=9;points=[];fontFamily=Permanent Marker;hachureGap=8;fillWeight=1;strokeColor=#d6b656;" parent="_5mSTuPxr-ZiKRkBDSY7-2" vertex="1">
            <mxGeometry x="20" y="2121" width="140" height="80" as="geometry" />
          </mxCell>
        </object>
        <object label="Testen, Debuggen" placeholders="1" id="HKqX8OT6sRfa5kSOksuR-148">
          <mxCell style="whiteSpace=wrap;html=1;strokeWidth=2;fillColor=#fff2cc;fontStyle=1;spacingTop=0;rounded=1;arcSize=9;points=[];fontFamily=Permanent Marker;hachureGap=8;fillWeight=1;strokeColor=#d6b656;" parent="_5mSTuPxr-ZiKRkBDSY7-2" vertex="1">
            <mxGeometry x="20" y="2221" width="140" height="80" as="geometry" />
          </mxCell>
        </object>
        <mxCell id="HKqX8OT6sRfa5kSOksuR-116" value="" style="swimlane;fontStyle=2;childLayout=stackLayout;horizontal=1;startSize=28;horizontalStack=1;resizeParent=1;resizeParentMax=0;resizeLast=0;collapsible=0;marginBottom=0;swimlaneFillColor=none;fontFamily=Permanent Marker;fontSize=16;points=[];verticalAlign=top;stackBorder=0;resizable=1;strokeWidth=2;disableMultiStroke=1;" parent="1" vertex="1">
          <mxGeometry x="510" y="1900" width="180" height="250" as="geometry" />
        </mxCell>
        <object label="Tbv ESP32 subsysteem" status="New" id="HKqX8OT6sRfa5kSOksuR-117">
          <mxCell style="swimlane;strokeWidth=2;fontFamily=Permanent Marker;html=0;startSize=1;verticalAlign=bottom;spacingBottom=5;points=[];childLayout=stackLayout;stackBorder=20;stackSpacing=20;resizeLast=0;resizeParent=1;horizontalStack=0;collapsible=0;strokeColor=none;fillStyle=solid;fillColor=#A0522D;" parent="HKqX8OT6sRfa5kSOksuR-116" vertex="1">
            <mxGeometry y="28" width="180" height="222" as="geometry" />
          </mxCell>
        </object>
        <object label="Plenair Installatie van ESP32 IDF" placeholders="1" id="HKqX8OT6sRfa5kSOksuR-118">
          <mxCell style="whiteSpace=wrap;html=1;strokeWidth=2;fillColor=#f5f5f5;fontStyle=1;spacingTop=0;rounded=1;arcSize=9;points=[];fontFamily=Permanent Marker;hachureGap=8;fillWeight=1;strokeColor=#666666;fontColor=#333333;" parent="HKqX8OT6sRfa5kSOksuR-117" vertex="1">
            <mxGeometry x="20" y="21" width="140" height="80" as="geometry" />
          </mxCell>
        </object>
        <object label="Workshop valkuilen en debuggen op ESP32" placeholders="1" id="HKqX8OT6sRfa5kSOksuR-119">
          <mxCell style="whiteSpace=wrap;html=1;strokeWidth=2;fillColor=#f5f5f5;fontStyle=1;spacingTop=0;rounded=1;arcSize=9;points=[];fontFamily=Permanent Marker;hachureGap=8;fillWeight=1;strokeColor=#666666;fontColor=#333333;" parent="HKqX8OT6sRfa5kSOksuR-117" vertex="1">
            <mxGeometry x="20" y="121" width="140" height="80" as="geometry" />
          </mxCell>
        </object>
        <mxCell id="HKqX8OT6sRfa5kSOksuR-132" style="edgeStyle=orthogonalEdgeStyle;rounded=0;orthogonalLoop=1;jettySize=auto;html=1;" parent="HKqX8OT6sRfa5kSOksuR-117" edge="1">
          <mxGeometry relative="1" as="geometry">
            <mxPoint x="90" y="301" as="sourcePoint" />
            <mxPoint x="90" y="301" as="targetPoint" />
          </mxGeometry>
        </mxCell>
        <mxCell id="HKqX8OT6sRfa5kSOksuR-133" style="edgeStyle=orthogonalEdgeStyle;rounded=0;orthogonalLoop=1;jettySize=auto;html=1;" parent="HKqX8OT6sRfa5kSOksuR-117" edge="1">
          <mxGeometry relative="1" as="geometry">
            <mxPoint x="90" y="301" as="sourcePoint" />
            <mxPoint x="90" y="301" as="targetPoint" />
          </mxGeometry>
        </mxCell>
        <mxCell id="HKqX8OT6sRfa5kSOksuR-135" style="edgeStyle=orthogonalEdgeStyle;rounded=0;orthogonalLoop=1;jettySize=auto;html=1;" parent="HKqX8OT6sRfa5kSOksuR-117" edge="1">
          <mxGeometry relative="1" as="geometry">
            <mxPoint x="90" y="301" as="sourcePoint" />
            <mxPoint x="90" y="301" as="targetPoint" />
          </mxGeometry>
        </mxCell>
        <mxCell id="HKqX8OT6sRfa5kSOksuR-138" style="edgeStyle=orthogonalEdgeStyle;rounded=0;orthogonalLoop=1;jettySize=auto;html=1;" parent="HKqX8OT6sRfa5kSOksuR-117" edge="1">
          <mxGeometry relative="1" as="geometry">
            <mxPoint x="90" y="301" as="sourcePoint" />
            <mxPoint x="90" y="301" as="targetPoint" />
          </mxGeometry>
        </mxCell>
        <mxCell id="HKqX8OT6sRfa5kSOksuR-140" style="edgeStyle=orthogonalEdgeStyle;rounded=0;orthogonalLoop=1;jettySize=auto;html=1;" parent="HKqX8OT6sRfa5kSOksuR-117" edge="1">
          <mxGeometry relative="1" as="geometry">
            <mxPoint x="90" y="301" as="sourcePoint" />
            <mxPoint x="90" y="301" as="targetPoint" />
          </mxGeometry>
        </mxCell>
        <mxCell id="HKqX8OT6sRfa5kSOksuR-142" style="edgeStyle=orthogonalEdgeStyle;rounded=0;orthogonalLoop=1;jettySize=auto;html=1;" parent="HKqX8OT6sRfa5kSOksuR-117" edge="1">
          <mxGeometry relative="1" as="geometry">
            <mxPoint x="90" y="301" as="sourcePoint" />
            <mxPoint x="90" y="301" as="targetPoint" />
          </mxGeometry>
        </mxCell>
        <mxCell id="HKqX8OT6sRfa5kSOksuR-181" value="" style="swimlane;fontStyle=2;childLayout=stackLayout;horizontal=1;startSize=28;horizontalStack=1;resizeParent=1;resizeParentMax=0;resizeLast=0;collapsible=0;marginBottom=0;swimlaneFillColor=none;fontFamily=Permanent Marker;fontSize=16;points=[];verticalAlign=top;stackBorder=0;resizable=1;strokeWidth=2;disableMultiStroke=1;" parent="1" vertex="1">
          <mxGeometry x="930" y="1900" width="180" height="250" as="geometry" />
        </mxCell>
        <object label="Tbv backend" status="New" id="HKqX8OT6sRfa5kSOksuR-182">
          <mxCell style="swimlane;strokeWidth=2;fontFamily=Permanent Marker;html=0;startSize=1;verticalAlign=bottom;spacingBottom=5;points=[];childLayout=stackLayout;stackBorder=20;stackSpacing=20;resizeLast=0;resizeParent=1;horizontalStack=0;collapsible=0;strokeColor=none;fillStyle=solid;fillColor=#A0522D;" parent="HKqX8OT6sRfa5kSOksuR-181" vertex="1">
            <mxGeometry y="28" width="180" height="222" as="geometry" />
          </mxCell>
        </object>
        <object label="Workshop Flask Server&amp;nbsp;" placeholders="1" id="HKqX8OT6sRfa5kSOksuR-184">
          <mxCell style="whiteSpace=wrap;html=1;strokeWidth=2;fillColor=#f5f5f5;fontStyle=1;spacingTop=0;rounded=1;arcSize=9;points=[];fontFamily=Permanent Marker;hachureGap=8;fillWeight=1;strokeColor=#666666;fontColor=#333333;" parent="HKqX8OT6sRfa5kSOksuR-182" vertex="1">
            <mxGeometry x="20" y="21" width="140" height="80" as="geometry" />
          </mxCell>
        </object>
        <mxCell id="HKqX8OT6sRfa5kSOksuR-185" style="edgeStyle=orthogonalEdgeStyle;rounded=0;orthogonalLoop=1;jettySize=auto;html=1;" parent="HKqX8OT6sRfa5kSOksuR-182" edge="1">
          <mxGeometry relative="1" as="geometry">
            <mxPoint x="90" y="301" as="sourcePoint" />
            <mxPoint x="90" y="301" as="targetPoint" />
          </mxGeometry>
        </mxCell>
        <mxCell id="HKqX8OT6sRfa5kSOksuR-186" style="edgeStyle=orthogonalEdgeStyle;rounded=0;orthogonalLoop=1;jettySize=auto;html=1;" parent="HKqX8OT6sRfa5kSOksuR-182" edge="1">
          <mxGeometry relative="1" as="geometry">
            <mxPoint x="90" y="301" as="sourcePoint" />
            <mxPoint x="90" y="301" as="targetPoint" />
          </mxGeometry>
        </mxCell>
        <mxCell id="HKqX8OT6sRfa5kSOksuR-187" style="edgeStyle=orthogonalEdgeStyle;rounded=0;orthogonalLoop=1;jettySize=auto;html=1;" parent="HKqX8OT6sRfa5kSOksuR-182" edge="1">
          <mxGeometry relative="1" as="geometry">
            <mxPoint x="90" y="301" as="sourcePoint" />
            <mxPoint x="90" y="301" as="targetPoint" />
          </mxGeometry>
        </mxCell>
        <mxCell id="HKqX8OT6sRfa5kSOksuR-188" style="edgeStyle=orthogonalEdgeStyle;rounded=0;orthogonalLoop=1;jettySize=auto;html=1;" parent="HKqX8OT6sRfa5kSOksuR-182" edge="1">
          <mxGeometry relative="1" as="geometry">
            <mxPoint x="90" y="301" as="sourcePoint" />
            <mxPoint x="90" y="301" as="targetPoint" />
          </mxGeometry>
        </mxCell>
        <mxCell id="HKqX8OT6sRfa5kSOksuR-189" style="edgeStyle=orthogonalEdgeStyle;rounded=0;orthogonalLoop=1;jettySize=auto;html=1;" parent="HKqX8OT6sRfa5kSOksuR-182" edge="1">
          <mxGeometry relative="1" as="geometry">
            <mxPoint x="90" y="301" as="sourcePoint" />
            <mxPoint x="90" y="301" as="targetPoint" />
          </mxGeometry>
        </mxCell>
        <mxCell id="HKqX8OT6sRfa5kSOksuR-190" style="edgeStyle=orthogonalEdgeStyle;rounded=0;orthogonalLoop=1;jettySize=auto;html=1;" parent="HKqX8OT6sRfa5kSOksuR-182" edge="1">
          <mxGeometry relative="1" as="geometry">
            <mxPoint x="90" y="301" as="sourcePoint" />
            <mxPoint x="90" y="301" as="targetPoint" />
          </mxGeometry>
        </mxCell>
        <object label="Workshop MongoDB" placeholders="1" id="HKqX8OT6sRfa5kSOksuR-202">
          <mxCell style="whiteSpace=wrap;html=1;strokeWidth=2;fillColor=#f5f5f5;fontStyle=1;spacingTop=0;rounded=1;arcSize=9;points=[];fontFamily=Permanent Marker;hachureGap=8;fillWeight=1;strokeColor=#666666;fontColor=#333333;" parent="HKqX8OT6sRfa5kSOksuR-182" vertex="1">
            <mxGeometry x="20" y="121" width="140" height="80" as="geometry" />
          </mxCell>
        </object>
        <mxCell id="HKqX8OT6sRfa5kSOksuR-191" value="" style="swimlane;fontStyle=2;childLayout=stackLayout;horizontal=1;startSize=28;horizontalStack=1;resizeParent=1;resizeParentMax=0;resizeLast=0;collapsible=0;marginBottom=0;swimlaneFillColor=none;fontFamily=Permanent Marker;fontSize=16;points=[];verticalAlign=top;stackBorder=0;resizable=1;strokeWidth=2;disableMultiStroke=1;" parent="1" vertex="1">
          <mxGeometry x="720" y="1900" width="180" height="360" as="geometry" />
        </mxCell>
        <object label="Tbv frontend" status="New" id="HKqX8OT6sRfa5kSOksuR-192">
          <mxCell style="swimlane;strokeWidth=2;fontFamily=Permanent Marker;html=0;startSize=1;verticalAlign=bottom;spacingBottom=5;points=[];childLayout=stackLayout;stackBorder=20;stackSpacing=20;resizeLast=0;resizeParent=1;horizontalStack=0;collapsible=0;strokeColor=none;fillStyle=solid;fillColor=#A0522D;" parent="HKqX8OT6sRfa5kSOksuR-191" vertex="1">
            <mxGeometry y="28" width="180" height="332" as="geometry" />
          </mxCell>
        </object>
        <object label="Meer over Networking, REST, Docker" placeholders="1" id="HKqX8OT6sRfa5kSOksuR-193">
          <mxCell style="whiteSpace=wrap;html=1;strokeWidth=2;fillColor=#f5f5f5;fontStyle=1;spacingTop=0;rounded=1;arcSize=9;points=[];fontFamily=Permanent Marker;hachureGap=8;fillWeight=1;strokeColor=#666666;fontColor=#333333;" parent="HKqX8OT6sRfa5kSOksuR-192" vertex="1">
            <mxGeometry x="20" y="21" width="140" height="80" as="geometry" />
          </mxCell>
        </object>
        <object label="Workshop HTML, CSS" placeholders="1" id="HKqX8OT6sRfa5kSOksuR-194">
          <mxCell style="whiteSpace=wrap;html=1;strokeWidth=2;fillColor=#f5f5f5;fontStyle=1;spacingTop=0;rounded=1;arcSize=9;points=[];fontFamily=Permanent Marker;hachureGap=8;fillWeight=1;strokeColor=#666666;fontColor=#333333;" parent="HKqX8OT6sRfa5kSOksuR-192" vertex="1">
            <mxGeometry x="20" y="121" width="140" height="80" as="geometry" />
          </mxCell>
        </object>
        <mxCell id="HKqX8OT6sRfa5kSOksuR-195" style="edgeStyle=orthogonalEdgeStyle;rounded=0;orthogonalLoop=1;jettySize=auto;html=1;" parent="HKqX8OT6sRfa5kSOksuR-192" edge="1">
          <mxGeometry relative="1" as="geometry">
            <mxPoint x="90" y="301" as="sourcePoint" />
            <mxPoint x="90" y="301" as="targetPoint" />
          </mxGeometry>
        </mxCell>
        <mxCell id="HKqX8OT6sRfa5kSOksuR-196" style="edgeStyle=orthogonalEdgeStyle;rounded=0;orthogonalLoop=1;jettySize=auto;html=1;" parent="HKqX8OT6sRfa5kSOksuR-192" edge="1">
          <mxGeometry relative="1" as="geometry">
            <mxPoint x="90" y="301" as="sourcePoint" />
            <mxPoint x="90" y="301" as="targetPoint" />
          </mxGeometry>
        </mxCell>
        <mxCell id="HKqX8OT6sRfa5kSOksuR-197" style="edgeStyle=orthogonalEdgeStyle;rounded=0;orthogonalLoop=1;jettySize=auto;html=1;" parent="HKqX8OT6sRfa5kSOksuR-192" edge="1">
          <mxGeometry relative="1" as="geometry">
            <mxPoint x="90" y="301" as="sourcePoint" />
            <mxPoint x="90" y="301" as="targetPoint" />
          </mxGeometry>
        </mxCell>
        <mxCell id="HKqX8OT6sRfa5kSOksuR-198" style="edgeStyle=orthogonalEdgeStyle;rounded=0;orthogonalLoop=1;jettySize=auto;html=1;" parent="HKqX8OT6sRfa5kSOksuR-192" edge="1">
          <mxGeometry relative="1" as="geometry">
            <mxPoint x="90" y="301" as="sourcePoint" />
            <mxPoint x="90" y="301" as="targetPoint" />
          </mxGeometry>
        </mxCell>
        <mxCell id="HKqX8OT6sRfa5kSOksuR-199" style="edgeStyle=orthogonalEdgeStyle;rounded=0;orthogonalLoop=1;jettySize=auto;html=1;" parent="HKqX8OT6sRfa5kSOksuR-192" edge="1">
          <mxGeometry relative="1" as="geometry">
            <mxPoint x="90" y="301" as="sourcePoint" />
            <mxPoint x="90" y="301" as="targetPoint" />
          </mxGeometry>
        </mxCell>
        <mxCell id="HKqX8OT6sRfa5kSOksuR-200" style="edgeStyle=orthogonalEdgeStyle;rounded=0;orthogonalLoop=1;jettySize=auto;html=1;" parent="HKqX8OT6sRfa5kSOksuR-192" edge="1">
          <mxGeometry relative="1" as="geometry">
            <mxPoint x="90" y="301" as="sourcePoint" />
            <mxPoint x="90" y="301" as="targetPoint" />
          </mxGeometry>
        </mxCell>
        <object label="Workshop Javascript" placeholders="1" id="HKqX8OT6sRfa5kSOksuR-201">
          <mxCell style="whiteSpace=wrap;html=1;strokeWidth=2;fillColor=#f5f5f5;fontStyle=1;spacingTop=0;rounded=1;arcSize=9;points=[];fontFamily=Permanent Marker;hachureGap=8;fillWeight=1;strokeColor=#666666;fontColor=#333333;" parent="HKqX8OT6sRfa5kSOksuR-192" vertex="1">
            <mxGeometry x="20" y="221" width="140" height="80" as="geometry" />
          </mxCell>
        </object>
        <mxCell id="HKqX8OT6sRfa5kSOksuR-203" value="" style="swimlane;fontStyle=2;childLayout=stackLayout;horizontal=1;startSize=28;horizontalStack=1;resizeParent=1;resizeParentMax=0;resizeLast=0;collapsible=0;marginBottom=0;swimlaneFillColor=none;fontFamily=Permanent Marker;fontSize=16;points=[];verticalAlign=top;stackBorder=0;resizable=1;strokeWidth=2;disableMultiStroke=1;" parent="1" vertex="1">
          <mxGeometry x="510" y="1059" width="180" height="460" as="geometry" />
        </mxCell>
        <object label="Tbv Hardware opbouw" status="New" id="HKqX8OT6sRfa5kSOksuR-204">
          <mxCell style="swimlane;strokeWidth=2;fontFamily=Permanent Marker;html=0;startSize=1;verticalAlign=bottom;spacingBottom=5;points=[];childLayout=stackLayout;stackBorder=20;stackSpacing=20;resizeLast=0;resizeParent=1;horizontalStack=0;collapsible=0;strokeColor=none;fillStyle=solid;fillColor=#A0522D;" parent="HKqX8OT6sRfa5kSOksuR-203" vertex="1">
            <mxGeometry y="28" width="180" height="432" as="geometry" />
          </mxCell>
        </object>
        <object label="Herhaling + Wat meer over electronica" placeholders="1" id="HKqX8OT6sRfa5kSOksuR-205">
          <mxCell style="whiteSpace=wrap;html=1;strokeWidth=2;fillColor=#f5f5f5;fontStyle=1;spacingTop=0;rounded=1;arcSize=9;points=[];fontFamily=Permanent Marker;hachureGap=8;fillWeight=1;strokeColor=#666666;fontColor=#333333;" parent="HKqX8OT6sRfa5kSOksuR-204" vertex="1">
            <mxGeometry x="20" y="21" width="140" height="80" as="geometry" />
          </mxCell>
        </object>
        <object label="Workshop aansturing motoren" placeholders="1" id="HKqX8OT6sRfa5kSOksuR-206">
          <mxCell style="whiteSpace=wrap;html=1;strokeWidth=2;fillColor=#f5f5f5;fontStyle=1;spacingTop=0;rounded=1;arcSize=9;points=[];fontFamily=Permanent Marker;hachureGap=8;fillWeight=1;strokeColor=#666666;fontColor=#333333;" parent="HKqX8OT6sRfa5kSOksuR-204" vertex="1">
            <mxGeometry x="20" y="121" width="140" height="80" as="geometry" />
          </mxCell>
        </object>
        <mxCell id="HKqX8OT6sRfa5kSOksuR-207" style="edgeStyle=orthogonalEdgeStyle;rounded=0;orthogonalLoop=1;jettySize=auto;html=1;" parent="HKqX8OT6sRfa5kSOksuR-204" edge="1">
          <mxGeometry relative="1" as="geometry">
            <mxPoint x="90" y="301" as="sourcePoint" />
            <mxPoint x="90" y="301" as="targetPoint" />
          </mxGeometry>
        </mxCell>
        <mxCell id="HKqX8OT6sRfa5kSOksuR-208" style="edgeStyle=orthogonalEdgeStyle;rounded=0;orthogonalLoop=1;jettySize=auto;html=1;" parent="HKqX8OT6sRfa5kSOksuR-204" edge="1">
          <mxGeometry relative="1" as="geometry">
            <mxPoint x="90" y="301" as="sourcePoint" />
            <mxPoint x="90" y="301" as="targetPoint" />
          </mxGeometry>
        </mxCell>
        <mxCell id="HKqX8OT6sRfa5kSOksuR-209" style="edgeStyle=orthogonalEdgeStyle;rounded=0;orthogonalLoop=1;jettySize=auto;html=1;" parent="HKqX8OT6sRfa5kSOksuR-204" edge="1">
          <mxGeometry relative="1" as="geometry">
            <mxPoint x="90" y="301" as="sourcePoint" />
            <mxPoint x="90" y="301" as="targetPoint" />
          </mxGeometry>
        </mxCell>
        <mxCell id="HKqX8OT6sRfa5kSOksuR-210" style="edgeStyle=orthogonalEdgeStyle;rounded=0;orthogonalLoop=1;jettySize=auto;html=1;" parent="HKqX8OT6sRfa5kSOksuR-204" edge="1">
          <mxGeometry relative="1" as="geometry">
            <mxPoint x="90" y="301" as="sourcePoint" />
            <mxPoint x="90" y="301" as="targetPoint" />
          </mxGeometry>
        </mxCell>
        <mxCell id="HKqX8OT6sRfa5kSOksuR-211" style="edgeStyle=orthogonalEdgeStyle;rounded=0;orthogonalLoop=1;jettySize=auto;html=1;" parent="HKqX8OT6sRfa5kSOksuR-204" edge="1">
          <mxGeometry relative="1" as="geometry">
            <mxPoint x="90" y="301" as="sourcePoint" />
            <mxPoint x="90" y="301" as="targetPoint" />
          </mxGeometry>
        </mxCell>
        <mxCell id="HKqX8OT6sRfa5kSOksuR-212" style="edgeStyle=orthogonalEdgeStyle;rounded=0;orthogonalLoop=1;jettySize=auto;html=1;" parent="HKqX8OT6sRfa5kSOksuR-204" edge="1">
          <mxGeometry relative="1" as="geometry">
            <mxPoint x="90" y="301" as="sourcePoint" />
            <mxPoint x="90" y="301" as="targetPoint" />
          </mxGeometry>
        </mxCell>
        <object label="Workshop PID regeling (ventilatorwip)" placeholders="1" id="HKqX8OT6sRfa5kSOksuR-262">
          <mxCell style="whiteSpace=wrap;html=1;strokeWidth=2;fillColor=#f5f5f5;fontStyle=1;spacingTop=0;rounded=1;arcSize=9;points=[];fontFamily=Permanent Marker;hachureGap=8;fillWeight=1;strokeColor=#666666;fontColor=#333333;" parent="HKqX8OT6sRfa5kSOksuR-204" vertex="1">
            <mxGeometry x="20" y="221" width="140" height="80" as="geometry" />
          </mxCell>
        </object>
        <object label="Workshop Antennes" placeholders="1" id="HKqX8OT6sRfa5kSOksuR-214">
          <mxCell style="whiteSpace=wrap;html=1;strokeWidth=2;fillColor=#f5f5f5;fontStyle=1;spacingTop=0;rounded=1;arcSize=9;points=[];fontFamily=Permanent Marker;hachureGap=8;fillWeight=1;strokeColor=#666666;fontColor=#333333;" parent="HKqX8OT6sRfa5kSOksuR-204" vertex="1">
            <mxGeometry x="20" y="321" width="140" height="80" as="geometry" />
          </mxCell>
        </object>
        <mxCell id="HKqX8OT6sRfa5kSOksuR-225" value="" style="swimlane;fontStyle=2;childLayout=stackLayout;horizontal=1;startSize=28;horizontalStack=1;resizeParent=1;resizeParentMax=0;resizeLast=0;collapsible=0;marginBottom=0;swimlaneFillColor=none;fontFamily=Permanent Marker;fontSize=16;points=[];verticalAlign=top;stackBorder=0;resizable=1;strokeWidth=2;disableMultiStroke=1;fillColor=#f5f5f5;fontColor=#333333;strokeColor=#666666;" parent="1" vertex="1">
          <mxGeometry x="720" y="1400" width="180" height="350" as="geometry" />
        </mxCell>
        <object label="Optioneel tbv Hardware" status="New" id="HKqX8OT6sRfa5kSOksuR-226">
          <mxCell style="swimlane;strokeWidth=2;fontFamily=Permanent Marker;html=0;startSize=1;verticalAlign=bottom;spacingBottom=5;points=[];childLayout=stackLayout;stackBorder=20;stackSpacing=20;resizeLast=0;resizeParent=1;horizontalStack=0;collapsible=0;strokeColor=#666666;fillStyle=solid;fillColor=#f5f5f5;fontColor=#333333;swimlaneFillColor=#E8E8E8;" parent="HKqX8OT6sRfa5kSOksuR-225" vertex="1">
            <mxGeometry y="28" width="180" height="421" as="geometry" />
          </mxCell>
        </object>
        <object label="Workshop printplaat ontwerp" placeholders="1" id="HKqX8OT6sRfa5kSOksuR-236">
          <mxCell style="whiteSpace=wrap;html=1;strokeWidth=2;fillColor=#f5f5f5;fontStyle=1;spacingTop=0;rounded=1;arcSize=9;points=[];fontFamily=Permanent Marker;hachureGap=8;fillWeight=1;strokeColor=#666666;fontColor=#333333;" parent="HKqX8OT6sRfa5kSOksuR-226" vertex="1">
            <mxGeometry x="20" y="21" width="140" height="80" as="geometry" />
          </mxCell>
        </object>
        <object label="Robotica workshop" placeholders="1" id="HKqX8OT6sRfa5kSOksuR-227">
          <mxCell style="whiteSpace=wrap;html=1;strokeWidth=2;fillColor=#f5f5f5;fontStyle=1;spacingTop=0;rounded=1;arcSize=9;points=[];fontFamily=Permanent Marker;hachureGap=8;fillWeight=1;strokeColor=#666666;fontColor=#333333;" parent="HKqX8OT6sRfa5kSOksuR-226" vertex="1">
            <mxGeometry x="20" y="121" width="140" height="80" as="geometry" />
          </mxCell>
        </object>
        <object label="Workshops Digitale Electronica" placeholders="1" id="HKqX8OT6sRfa5kSOksuR-228">
          <mxCell style="whiteSpace=wrap;html=1;strokeWidth=2;fillColor=#f5f5f5;fontStyle=1;spacingTop=0;rounded=1;arcSize=9;points=[];fontFamily=Permanent Marker;hachureGap=8;fillWeight=1;strokeColor=#666666;fontColor=#333333;" parent="HKqX8OT6sRfa5kSOksuR-226" vertex="1">
            <mxGeometry x="20" y="221" width="140" height="80" as="geometry" />
          </mxCell>
        </object>
        <mxCell id="HKqX8OT6sRfa5kSOksuR-229" style="edgeStyle=orthogonalEdgeStyle;rounded=0;orthogonalLoop=1;jettySize=auto;html=1;" parent="HKqX8OT6sRfa5kSOksuR-226" edge="1">
          <mxGeometry relative="1" as="geometry">
            <mxPoint x="90" y="301" as="sourcePoint" />
            <mxPoint x="90" y="301" as="targetPoint" />
          </mxGeometry>
        </mxCell>
        <mxCell id="HKqX8OT6sRfa5kSOksuR-230" style="edgeStyle=orthogonalEdgeStyle;rounded=0;orthogonalLoop=1;jettySize=auto;html=1;" parent="HKqX8OT6sRfa5kSOksuR-226" edge="1">
          <mxGeometry relative="1" as="geometry">
            <mxPoint x="90" y="301" as="sourcePoint" />
            <mxPoint x="90" y="301" as="targetPoint" />
          </mxGeometry>
        </mxCell>
        <mxCell id="HKqX8OT6sRfa5kSOksuR-231" style="edgeStyle=orthogonalEdgeStyle;rounded=0;orthogonalLoop=1;jettySize=auto;html=1;" parent="HKqX8OT6sRfa5kSOksuR-226" edge="1">
          <mxGeometry relative="1" as="geometry">
            <mxPoint x="90" y="301" as="sourcePoint" />
            <mxPoint x="90" y="301" as="targetPoint" />
          </mxGeometry>
        </mxCell>
        <mxCell id="HKqX8OT6sRfa5kSOksuR-232" style="edgeStyle=orthogonalEdgeStyle;rounded=0;orthogonalLoop=1;jettySize=auto;html=1;" parent="HKqX8OT6sRfa5kSOksuR-226" edge="1">
          <mxGeometry relative="1" as="geometry">
            <mxPoint x="90" y="301" as="sourcePoint" />
            <mxPoint x="90" y="301" as="targetPoint" />
          </mxGeometry>
        </mxCell>
        <mxCell id="HKqX8OT6sRfa5kSOksuR-233" style="edgeStyle=orthogonalEdgeStyle;rounded=0;orthogonalLoop=1;jettySize=auto;html=1;" parent="HKqX8OT6sRfa5kSOksuR-226" edge="1">
          <mxGeometry relative="1" as="geometry">
            <mxPoint x="90" y="301" as="sourcePoint" />
            <mxPoint x="90" y="301" as="targetPoint" />
          </mxGeometry>
        </mxCell>
        <mxCell id="HKqX8OT6sRfa5kSOksuR-234" style="edgeStyle=orthogonalEdgeStyle;rounded=0;orthogonalLoop=1;jettySize=auto;html=1;" parent="HKqX8OT6sRfa5kSOksuR-226" edge="1">
          <mxGeometry relative="1" as="geometry">
            <mxPoint x="90" y="301" as="sourcePoint" />
            <mxPoint x="90" y="301" as="targetPoint" />
          </mxGeometry>
        </mxCell>
        <object label="Workshop PLC programmeren" placeholders="1" id="HKqX8OT6sRfa5kSOksuR-235">
          <mxCell style="whiteSpace=wrap;html=1;strokeWidth=2;fillColor=#f5f5f5;fontStyle=1;spacingTop=0;rounded=1;arcSize=9;points=[];fontFamily=Permanent Marker;hachureGap=8;fillWeight=1;strokeColor=#666666;fontColor=#333333;" parent="HKqX8OT6sRfa5kSOksuR-226" vertex="1">
            <mxGeometry x="20" y="321" width="140" height="80" as="geometry" />
          </mxCell>
        </object>
        <mxCell id="HKqX8OT6sRfa5kSOksuR-238" value="Triviale Scrum Procesmatigheden (bijhouden van scrum logboek, periodieke retro en reflectie, presenteren en opleveren) zijn niet expliciet vermeld, maar wel als ongoing beschouwd." style="shape=note;size=15;align=left;spacingLeft=10;html=1;whiteSpace=wrap;" parent="1" vertex="1">
          <mxGeometry x="510" y="2280" width="160" height="150" as="geometry" />
        </mxCell>
        <mxCell id="HKqX8OT6sRfa5kSOksuR-250" value="" style="swimlane;fontStyle=2;childLayout=stackLayout;horizontal=1;startSize=28;horizontalStack=1;resizeParent=1;resizeParentMax=0;resizeLast=0;collapsible=0;marginBottom=0;swimlaneFillColor=none;fontFamily=Permanent Marker;fontSize=16;points=[];verticalAlign=top;stackBorder=0;resizable=1;strokeWidth=2;disableMultiStroke=1;fillColor=#f5f5f5;fontColor=#333333;strokeColor=#666666;" parent="1" vertex="1">
          <mxGeometry x="930" y="1400" width="180" height="449" as="geometry" />
        </mxCell>
        <object label="Optioneel tbv Software" status="New" id="HKqX8OT6sRfa5kSOksuR-251">
          <mxCell style="swimlane;strokeWidth=2;fontFamily=Permanent Marker;html=0;startSize=1;verticalAlign=bottom;spacingBottom=5;points=[];childLayout=stackLayout;stackBorder=20;stackSpacing=20;resizeLast=0;resizeParent=1;horizontalStack=0;collapsible=0;strokeColor=#666666;fillStyle=solid;fillColor=#f5f5f5;fontColor=#333333;swimlaneFillColor=#E8E8E8;" parent="HKqX8OT6sRfa5kSOksuR-250" vertex="1">
            <mxGeometry y="28" width="180" height="421" as="geometry" />
          </mxCell>
        </object>
        <object label="Computer Vision" placeholders="1" id="HKqX8OT6sRfa5kSOksuR-252">
          <mxCell style="whiteSpace=wrap;html=1;strokeWidth=2;fillColor=#f5f5f5;fontStyle=1;spacingTop=0;rounded=1;arcSize=9;points=[];fontFamily=Permanent Marker;hachureGap=8;fillWeight=1;strokeColor=#666666;fontColor=#333333;" parent="HKqX8OT6sRfa5kSOksuR-251" vertex="1">
            <mxGeometry x="20" y="21" width="140" height="80" as="geometry" />
          </mxCell>
        </object>
        <object label="Clusteren met Kmeans" placeholders="1" id="HKqX8OT6sRfa5kSOksuR-253">
          <mxCell style="whiteSpace=wrap;html=1;strokeWidth=2;fillColor=#f5f5f5;fontStyle=1;spacingTop=0;rounded=1;arcSize=9;points=[];fontFamily=Permanent Marker;hachureGap=8;fillWeight=1;strokeColor=#666666;fontColor=#333333;" parent="HKqX8OT6sRfa5kSOksuR-251" vertex="1">
            <mxGeometry x="20" y="121" width="140" height="80" as="geometry" />
          </mxCell>
        </object>
        <object label="Classificatie met eenvoudig neuraal netwerkje" placeholders="1" id="HKqX8OT6sRfa5kSOksuR-254">
          <mxCell style="whiteSpace=wrap;html=1;strokeWidth=2;fillColor=#f5f5f5;fontStyle=1;spacingTop=0;rounded=1;arcSize=9;points=[];fontFamily=Permanent Marker;hachureGap=8;fillWeight=1;strokeColor=#666666;fontColor=#333333;" parent="HKqX8OT6sRfa5kSOksuR-251" vertex="1">
            <mxGeometry x="20" y="221" width="140" height="80" as="geometry" />
          </mxCell>
        </object>
        <mxCell id="HKqX8OT6sRfa5kSOksuR-255" style="edgeStyle=orthogonalEdgeStyle;rounded=0;orthogonalLoop=1;jettySize=auto;html=1;" parent="HKqX8OT6sRfa5kSOksuR-251" edge="1">
          <mxGeometry relative="1" as="geometry">
            <mxPoint x="90" y="301" as="sourcePoint" />
            <mxPoint x="90" y="301" as="targetPoint" />
          </mxGeometry>
        </mxCell>
        <mxCell id="HKqX8OT6sRfa5kSOksuR-256" style="edgeStyle=orthogonalEdgeStyle;rounded=0;orthogonalLoop=1;jettySize=auto;html=1;" parent="HKqX8OT6sRfa5kSOksuR-251" edge="1">
          <mxGeometry relative="1" as="geometry">
            <mxPoint x="90" y="301" as="sourcePoint" />
            <mxPoint x="90" y="301" as="targetPoint" />
          </mxGeometry>
        </mxCell>
        <mxCell id="HKqX8OT6sRfa5kSOksuR-257" style="edgeStyle=orthogonalEdgeStyle;rounded=0;orthogonalLoop=1;jettySize=auto;html=1;" parent="HKqX8OT6sRfa5kSOksuR-251" edge="1">
          <mxGeometry relative="1" as="geometry">
            <mxPoint x="90" y="301" as="sourcePoint" />
            <mxPoint x="90" y="301" as="targetPoint" />
          </mxGeometry>
        </mxCell>
        <mxCell id="HKqX8OT6sRfa5kSOksuR-258" style="edgeStyle=orthogonalEdgeStyle;rounded=0;orthogonalLoop=1;jettySize=auto;html=1;" parent="HKqX8OT6sRfa5kSOksuR-251" edge="1">
          <mxGeometry relative="1" as="geometry">
            <mxPoint x="90" y="301" as="sourcePoint" />
            <mxPoint x="90" y="301" as="targetPoint" />
          </mxGeometry>
        </mxCell>
        <mxCell id="HKqX8OT6sRfa5kSOksuR-259" style="edgeStyle=orthogonalEdgeStyle;rounded=0;orthogonalLoop=1;jettySize=auto;html=1;" parent="HKqX8OT6sRfa5kSOksuR-251" edge="1">
          <mxGeometry relative="1" as="geometry">
            <mxPoint x="90" y="301" as="sourcePoint" />
            <mxPoint x="90" y="301" as="targetPoint" />
          </mxGeometry>
        </mxCell>
        <mxCell id="HKqX8OT6sRfa5kSOksuR-260" style="edgeStyle=orthogonalEdgeStyle;rounded=0;orthogonalLoop=1;jettySize=auto;html=1;" parent="HKqX8OT6sRfa5kSOksuR-251" edge="1">
          <mxGeometry relative="1" as="geometry">
            <mxPoint x="90" y="301" as="sourcePoint" />
            <mxPoint x="90" y="301" as="targetPoint" />
          </mxGeometry>
        </mxCell>
        <object label="Evolutionair programmeren" placeholders="1" id="HKqX8OT6sRfa5kSOksuR-261">
          <mxCell style="whiteSpace=wrap;html=1;strokeWidth=2;fillColor=#f5f5f5;fontStyle=1;spacingTop=0;rounded=1;arcSize=9;points=[];fontFamily=Permanent Marker;hachureGap=8;fillWeight=1;strokeColor=#666666;fontColor=#333333;" parent="HKqX8OT6sRfa5kSOksuR-251" vertex="1">
            <mxGeometry x="20" y="321" width="140" height="80" as="geometry" />
          </mxCell>
        </object>
        <mxCell id="HKqX8OT6sRfa5kSOksuR-263" value="" style="swimlane;fontStyle=2;childLayout=stackLayout;horizontal=1;startSize=28;horizontalStack=1;resizeParent=1;resizeParentMax=0;resizeLast=0;collapsible=0;marginBottom=0;swimlaneFillColor=none;fontFamily=Permanent Marker;fontSize=16;points=[];verticalAlign=top;stackBorder=0;resizable=1;strokeWidth=2;disableMultiStroke=1;" parent="1" vertex="1">
          <mxGeometry x="510" y="580" width="180" height="250" as="geometry" />
        </mxCell>
        <object label="Tbv afwisseling op modelleren" status="New" id="HKqX8OT6sRfa5kSOksuR-264">
          <mxCell style="swimlane;strokeWidth=2;fontFamily=Permanent Marker;html=0;startSize=1;verticalAlign=bottom;spacingBottom=5;points=[];childLayout=stackLayout;stackBorder=20;stackSpacing=20;resizeLast=0;resizeParent=1;horizontalStack=0;collapsible=0;strokeColor=none;fillStyle=solid;fillColor=#A0522D;" parent="HKqX8OT6sRfa5kSOksuR-263" vertex="1">
            <mxGeometry y="28" width="180" height="222" as="geometry" />
          </mxCell>
        </object>
        <object label="Uitstapje?" placeholders="1" id="HKqX8OT6sRfa5kSOksuR-265">
          <mxCell style="whiteSpace=wrap;html=1;strokeWidth=2;fillColor=#f5f5f5;fontStyle=1;spacingTop=0;rounded=1;arcSize=9;points=[];fontFamily=Permanent Marker;hachureGap=8;fillWeight=1;strokeColor=#666666;fontColor=#333333;" parent="HKqX8OT6sRfa5kSOksuR-264" vertex="1">
            <mxGeometry x="20" y="21" width="140" height="80" as="geometry" />
          </mxCell>
        </object>
        <object label="Spreker uit praktijk?" placeholders="1" id="HKqX8OT6sRfa5kSOksuR-266">
          <mxCell style="whiteSpace=wrap;html=1;strokeWidth=2;fillColor=#f5f5f5;fontStyle=1;spacingTop=0;rounded=1;arcSize=9;points=[];fontFamily=Permanent Marker;hachureGap=8;fillWeight=1;strokeColor=#666666;fontColor=#333333;" parent="HKqX8OT6sRfa5kSOksuR-264" vertex="1">
            <mxGeometry x="20" y="121" width="140" height="80" as="geometry" />
          </mxCell>
        </object>
        <mxCell id="HKqX8OT6sRfa5kSOksuR-267" style="edgeStyle=orthogonalEdgeStyle;rounded=0;orthogonalLoop=1;jettySize=auto;html=1;" parent="HKqX8OT6sRfa5kSOksuR-264" edge="1">
          <mxGeometry relative="1" as="geometry">
            <mxPoint x="90" y="301" as="sourcePoint" />
            <mxPoint x="90" y="301" as="targetPoint" />
          </mxGeometry>
        </mxCell>
        <mxCell id="HKqX8OT6sRfa5kSOksuR-268" style="edgeStyle=orthogonalEdgeStyle;rounded=0;orthogonalLoop=1;jettySize=auto;html=1;" parent="HKqX8OT6sRfa5kSOksuR-264" edge="1">
          <mxGeometry relative="1" as="geometry">
            <mxPoint x="90" y="301" as="sourcePoint" />
            <mxPoint x="90" y="301" as="targetPoint" />
          </mxGeometry>
        </mxCell>
        <mxCell id="HKqX8OT6sRfa5kSOksuR-269" style="edgeStyle=orthogonalEdgeStyle;rounded=0;orthogonalLoop=1;jettySize=auto;html=1;" parent="HKqX8OT6sRfa5kSOksuR-264" edge="1">
          <mxGeometry relative="1" as="geometry">
            <mxPoint x="90" y="301" as="sourcePoint" />
            <mxPoint x="90" y="301" as="targetPoint" />
          </mxGeometry>
        </mxCell>
        <mxCell id="HKqX8OT6sRfa5kSOksuR-270" style="edgeStyle=orthogonalEdgeStyle;rounded=0;orthogonalLoop=1;jettySize=auto;html=1;" parent="HKqX8OT6sRfa5kSOksuR-264" edge="1">
          <mxGeometry relative="1" as="geometry">
            <mxPoint x="90" y="301" as="sourcePoint" />
            <mxPoint x="90" y="301" as="targetPoint" />
          </mxGeometry>
        </mxCell>
        <mxCell id="HKqX8OT6sRfa5kSOksuR-271" style="edgeStyle=orthogonalEdgeStyle;rounded=0;orthogonalLoop=1;jettySize=auto;html=1;" parent="HKqX8OT6sRfa5kSOksuR-264" edge="1">
          <mxGeometry relative="1" as="geometry">
            <mxPoint x="90" y="301" as="sourcePoint" />
            <mxPoint x="90" y="301" as="targetPoint" />
          </mxGeometry>
        </mxCell>
        <mxCell id="HKqX8OT6sRfa5kSOksuR-272" style="edgeStyle=orthogonalEdgeStyle;rounded=0;orthogonalLoop=1;jettySize=auto;html=1;" parent="HKqX8OT6sRfa5kSOksuR-264" edge="1">
          <mxGeometry relative="1" as="geometry">
            <mxPoint x="90" y="301" as="sourcePoint" />
            <mxPoint x="90" y="301" as="targetPoint" />
          </mxGeometry>
        </mxCell>
      </root>
    </mxGraphModel>
  </diagram>
  <diagram name="Jaarindeling_2" id="ORSKyvIljr7h_q9_OY14">
    <mxGraphModel dx="1976" dy="1168" grid="0" gridSize="10" guides="1" tooltips="1" connect="1" arrows="1" fold="1" page="1" pageScale="1" pageWidth="850" pageHeight="1100" math="0" shadow="0">
      <root>
        <mxCell id="NJDvE9kgN_ZWWw6jlsvr-0" />
        <mxCell id="NJDvE9kgN_ZWWw6jlsvr-1" parent="NJDvE9kgN_ZWWw6jlsvr-0" />
        <mxCell id="NJDvE9kgN_ZWWw6jlsvr-2" value="" style="swimlane;fontStyle=2;childLayout=stackLayout;horizontal=1;startSize=28;horizontalStack=1;resizeParent=1;resizeParentMax=0;resizeLast=0;collapsible=0;marginBottom=0;swimlaneFillColor=none;fontFamily=Permanent Marker;fontSize=16;points=[];verticalAlign=top;stackBorder=0;resizable=1;strokeWidth=2;disableMultiStroke=1;" vertex="1" parent="NJDvE9kgN_ZWWw6jlsvr-1">
          <mxGeometry x="290" y="140" width="180" height="1339" as="geometry" />
        </mxCell>
        <object label="Volgorde van Activiteiten" status="New" id="NJDvE9kgN_ZWWw6jlsvr-3">
          <mxCell style="swimlane;strokeWidth=2;fontFamily=Permanent Marker;html=0;startSize=1;verticalAlign=bottom;spacingBottom=5;points=[];childLayout=stackLayout;stackBorder=20;stackSpacing=20;resizeLast=0;resizeParent=1;horizontalStack=0;collapsible=0;strokeColor=none;fillStyle=solid;fillColor=#A0522D;" vertex="1" parent="NJDvE9kgN_ZWWw6jlsvr-2">
            <mxGeometry y="28" width="180" height="1321" as="geometry" />
          </mxCell>
        </object>
        <object label="Kickoff:&lt;br&gt;Overview&lt;br&gt;Teamvorming" placeholders="1" id="NJDvE9kgN_ZWWw6jlsvr-4">
          <mxCell style="whiteSpace=wrap;html=1;strokeWidth=2;fillColor=#f5f5f5;fontStyle=1;spacingTop=0;rounded=1;arcSize=9;points=[];fontFamily=Permanent Marker;hachureGap=8;fillWeight=1;strokeColor=#666666;fontColor=#333333;sketch=1;curveFitting=1;jiggle=2;" vertex="1" parent="NJDvE9kgN_ZWWw6jlsvr-3">
            <mxGeometry x="20" y="21" width="140" height="80" as="geometry" />
          </mxCell>
        </object>
        <object label="Kennismaking met &quot;Klanten / Bedrijven&quot;,&lt;br&gt;Hun opdracht in grote lijnen" placeholders="1" id="NJDvE9kgN_ZWWw6jlsvr-5">
          <mxCell style="whiteSpace=wrap;html=1;strokeWidth=2;fillColor=#f5f5f5;fontStyle=1;spacingTop=0;rounded=1;arcSize=9;points=[];fontFamily=Permanent Marker;hachureGap=8;fillWeight=1;strokeColor=#666666;fontColor=#333333;sketch=1;curveFitting=1;jiggle=2;" vertex="1" parent="NJDvE9kgN_ZWWw6jlsvr-3">
            <mxGeometry x="20" y="121" width="140" height="80" as="geometry" />
          </mxCell>
        </object>
        <object label="Agile Sprint" placeholders="1" id="FJFDZiy_noSnRlDAXiye-176">
          <mxCell style="whiteSpace=wrap;html=1;strokeWidth=2;fillColor=#f5f5f5;fontStyle=1;spacingTop=0;rounded=1;arcSize=9;points=[];fontFamily=Permanent Marker;hachureGap=8;fillWeight=1;strokeColor=#666666;fontColor=#333333;" vertex="1" parent="NJDvE9kgN_ZWWw6jlsvr-3">
            <mxGeometry x="20" y="221" width="140" height="80" as="geometry" />
          </mxCell>
        </object>
        <object label="Agile Sprint" placeholders="1" id="FJFDZiy_noSnRlDAXiye-177">
          <mxCell style="whiteSpace=wrap;html=1;strokeWidth=2;fillColor=#f5f5f5;fontStyle=1;spacingTop=0;rounded=1;arcSize=9;points=[];fontFamily=Permanent Marker;hachureGap=8;fillWeight=1;strokeColor=#666666;fontColor=#333333;" vertex="1" parent="NJDvE9kgN_ZWWw6jlsvr-3">
            <mxGeometry x="20" y="321" width="140" height="80" as="geometry" />
          </mxCell>
        </object>
        <object label="Agile Sprint" placeholders="1" id="FJFDZiy_noSnRlDAXiye-178">
          <mxCell style="whiteSpace=wrap;html=1;strokeWidth=2;fillColor=#f5f5f5;fontStyle=1;spacingTop=0;rounded=1;arcSize=9;points=[];fontFamily=Permanent Marker;hachureGap=8;fillWeight=1;strokeColor=#666666;fontColor=#333333;" vertex="1" parent="NJDvE9kgN_ZWWw6jlsvr-3">
            <mxGeometry x="20" y="421" width="140" height="80" as="geometry" />
          </mxCell>
        </object>
        <object label="Agile Sprint" placeholders="1" id="FJFDZiy_noSnRlDAXiye-179">
          <mxCell style="whiteSpace=wrap;html=1;strokeWidth=2;fillColor=#f5f5f5;fontStyle=1;spacingTop=0;rounded=1;arcSize=9;points=[];fontFamily=Permanent Marker;hachureGap=8;fillWeight=1;strokeColor=#666666;fontColor=#333333;" vertex="1" parent="NJDvE9kgN_ZWWw6jlsvr-3">
            <mxGeometry x="20" y="521" width="140" height="80" as="geometry" />
          </mxCell>
        </object>
        <object label="Agile Sprint" placeholders="1" id="FJFDZiy_noSnRlDAXiye-180">
          <mxCell style="whiteSpace=wrap;html=1;strokeWidth=2;fillColor=#f5f5f5;fontStyle=1;spacingTop=0;rounded=1;arcSize=9;points=[];fontFamily=Permanent Marker;hachureGap=8;fillWeight=1;strokeColor=#666666;fontColor=#333333;" vertex="1" parent="NJDvE9kgN_ZWWw6jlsvr-3">
            <mxGeometry x="20" y="621" width="140" height="80" as="geometry" />
          </mxCell>
        </object>
        <object label="Agile Sprint" placeholders="1" id="FJFDZiy_noSnRlDAXiye-181">
          <mxCell style="whiteSpace=wrap;html=1;strokeWidth=2;fillColor=#f5f5f5;fontStyle=1;spacingTop=0;rounded=1;arcSize=9;points=[];fontFamily=Permanent Marker;hachureGap=8;fillWeight=1;strokeColor=#666666;fontColor=#333333;" vertex="1" parent="NJDvE9kgN_ZWWw6jlsvr-3">
            <mxGeometry x="20" y="721" width="140" height="80" as="geometry" />
          </mxCell>
        </object>
        <object label="Agile Sprint" placeholders="1" id="FJFDZiy_noSnRlDAXiye-182">
          <mxCell style="whiteSpace=wrap;html=1;strokeWidth=2;fillColor=#f5f5f5;fontStyle=1;spacingTop=0;rounded=1;arcSize=9;points=[];fontFamily=Permanent Marker;hachureGap=8;fillWeight=1;strokeColor=#666666;fontColor=#333333;" vertex="1" parent="NJDvE9kgN_ZWWw6jlsvr-3">
            <mxGeometry x="20" y="821" width="140" height="80" as="geometry" />
          </mxCell>
        </object>
        <object label="Agile Sprint" placeholders="1" id="FJFDZiy_noSnRlDAXiye-183">
          <mxCell style="whiteSpace=wrap;html=1;strokeWidth=2;fillColor=#f5f5f5;fontStyle=1;spacingTop=0;rounded=1;arcSize=9;points=[];fontFamily=Permanent Marker;hachureGap=8;fillWeight=1;strokeColor=#666666;fontColor=#333333;" vertex="1" parent="NJDvE9kgN_ZWWw6jlsvr-3">
            <mxGeometry x="20" y="921" width="140" height="80" as="geometry" />
          </mxCell>
        </object>
        <object label="Oplevering" placeholders="1" id="FJFDZiy_noSnRlDAXiye-208">
          <mxCell style="whiteSpace=wrap;html=1;strokeWidth=2;fillColor=#f5f5f5;fontStyle=1;spacingTop=0;rounded=1;arcSize=9;points=[];fontFamily=Permanent Marker;hachureGap=8;fillWeight=1;strokeColor=#666666;fontColor=#333333;" vertex="1" parent="NJDvE9kgN_ZWWw6jlsvr-3">
            <mxGeometry x="20" y="1021" width="140" height="80" as="geometry" />
          </mxCell>
        </object>
        <object label="Reparatie" placeholders="1" id="FJFDZiy_noSnRlDAXiye-209">
          <mxCell style="whiteSpace=wrap;html=1;strokeWidth=2;fillColor=#f5f5f5;fontStyle=1;spacingTop=0;rounded=1;arcSize=9;points=[];fontFamily=Permanent Marker;hachureGap=8;fillWeight=1;strokeColor=#666666;fontColor=#333333;" vertex="1" parent="NJDvE9kgN_ZWWw6jlsvr-3">
            <mxGeometry x="20" y="1121" width="140" height="80" as="geometry" />
          </mxCell>
        </object>
        <object label="Reparatie" placeholders="1" id="FJFDZiy_noSnRlDAXiye-210">
          <mxCell style="whiteSpace=wrap;html=1;strokeWidth=2;fillColor=#f5f5f5;fontStyle=1;spacingTop=0;rounded=1;arcSize=9;points=[];fontFamily=Permanent Marker;hachureGap=8;fillWeight=1;strokeColor=#666666;fontColor=#333333;" vertex="1" parent="NJDvE9kgN_ZWWw6jlsvr-3">
            <mxGeometry x="20" y="1221" width="140" height="80" as="geometry" />
          </mxCell>
        </object>
        <mxCell id="NJDvE9kgN_ZWWw6jlsvr-37" value="" style="swimlane;fontStyle=2;childLayout=stackLayout;horizontal=1;startSize=28;horizontalStack=1;resizeParent=1;resizeParentMax=0;resizeLast=0;collapsible=0;marginBottom=0;swimlaneFillColor=none;fontFamily=Permanent Marker;fontSize=16;points=[];verticalAlign=top;stackBorder=0;resizable=1;strokeWidth=2;disableMultiStroke=1;" vertex="1" parent="NJDvE9kgN_ZWWw6jlsvr-1">
          <mxGeometry x="-397" y="306" width="180" height="248" as="geometry" />
        </mxCell>
        <object label="Workshops tbv ESP32 subsysteem" status="New" id="NJDvE9kgN_ZWWw6jlsvr-38">
          <mxCell style="swimlane;strokeWidth=2;fontFamily=Permanent Marker;html=0;startSize=1;verticalAlign=bottom;spacingBottom=5;points=[];childLayout=stackLayout;stackBorder=20;stackSpacing=20;resizeLast=0;resizeParent=1;horizontalStack=0;collapsible=0;strokeColor=none;fillStyle=solid;fillColor=#A0522D;" vertex="1" parent="NJDvE9kgN_ZWWw6jlsvr-37">
            <mxGeometry y="28" width="180" height="221" as="geometry" />
          </mxCell>
        </object>
        <object label="Plenair Installatie van ESP32 IDF" placeholders="1" id="NJDvE9kgN_ZWWw6jlsvr-39">
          <mxCell style="whiteSpace=wrap;html=1;strokeWidth=2;fillColor=#f5f5f5;fontStyle=1;spacingTop=0;rounded=1;arcSize=9;points=[];fontFamily=Permanent Marker;hachureGap=8;fillWeight=1;strokeColor=#666666;fontColor=#333333;" vertex="1" parent="NJDvE9kgN_ZWWw6jlsvr-38">
            <mxGeometry x="20" y="21" width="140" height="80" as="geometry" />
          </mxCell>
        </object>
        <object label="Workshop valkuilen en debuggen op ESP32" placeholders="1" id="NJDvE9kgN_ZWWw6jlsvr-40">
          <mxCell style="whiteSpace=wrap;html=1;strokeWidth=2;fillColor=#f5f5f5;fontStyle=1;spacingTop=0;rounded=1;arcSize=9;points=[];fontFamily=Permanent Marker;hachureGap=8;fillWeight=1;strokeColor=#666666;fontColor=#333333;sketch=1;curveFitting=1;jiggle=2;" vertex="1" parent="NJDvE9kgN_ZWWw6jlsvr-38">
            <mxGeometry x="20" y="121" width="140" height="80" as="geometry" />
          </mxCell>
        </object>
        <mxCell id="NJDvE9kgN_ZWWw6jlsvr-41" style="edgeStyle=orthogonalEdgeStyle;rounded=0;orthogonalLoop=1;jettySize=auto;html=1;" edge="1" parent="NJDvE9kgN_ZWWw6jlsvr-38">
          <mxGeometry relative="1" as="geometry">
            <mxPoint x="90" y="301" as="sourcePoint" />
            <mxPoint x="90" y="301" as="targetPoint" />
          </mxGeometry>
        </mxCell>
        <mxCell id="NJDvE9kgN_ZWWw6jlsvr-42" style="edgeStyle=orthogonalEdgeStyle;rounded=0;orthogonalLoop=1;jettySize=auto;html=1;" edge="1" parent="NJDvE9kgN_ZWWw6jlsvr-38">
          <mxGeometry relative="1" as="geometry">
            <mxPoint x="90" y="301" as="sourcePoint" />
            <mxPoint x="90" y="301" as="targetPoint" />
          </mxGeometry>
        </mxCell>
        <mxCell id="NJDvE9kgN_ZWWw6jlsvr-43" style="edgeStyle=orthogonalEdgeStyle;rounded=0;orthogonalLoop=1;jettySize=auto;html=1;" edge="1" parent="NJDvE9kgN_ZWWw6jlsvr-38">
          <mxGeometry relative="1" as="geometry">
            <mxPoint x="90" y="301" as="sourcePoint" />
            <mxPoint x="90" y="301" as="targetPoint" />
          </mxGeometry>
        </mxCell>
        <mxCell id="NJDvE9kgN_ZWWw6jlsvr-44" style="edgeStyle=orthogonalEdgeStyle;rounded=0;orthogonalLoop=1;jettySize=auto;html=1;" edge="1" parent="NJDvE9kgN_ZWWw6jlsvr-38">
          <mxGeometry relative="1" as="geometry">
            <mxPoint x="90" y="301" as="sourcePoint" />
            <mxPoint x="90" y="301" as="targetPoint" />
          </mxGeometry>
        </mxCell>
        <mxCell id="NJDvE9kgN_ZWWw6jlsvr-45" style="edgeStyle=orthogonalEdgeStyle;rounded=0;orthogonalLoop=1;jettySize=auto;html=1;" edge="1" parent="NJDvE9kgN_ZWWw6jlsvr-38">
          <mxGeometry relative="1" as="geometry">
            <mxPoint x="90" y="301" as="sourcePoint" />
            <mxPoint x="90" y="301" as="targetPoint" />
          </mxGeometry>
        </mxCell>
        <mxCell id="NJDvE9kgN_ZWWw6jlsvr-46" style="edgeStyle=orthogonalEdgeStyle;rounded=0;orthogonalLoop=1;jettySize=auto;html=1;" edge="1" parent="NJDvE9kgN_ZWWw6jlsvr-38">
          <mxGeometry relative="1" as="geometry">
            <mxPoint x="90" y="301" as="sourcePoint" />
            <mxPoint x="90" y="301" as="targetPoint" />
          </mxGeometry>
        </mxCell>
        <mxCell id="NJDvE9kgN_ZWWw6jlsvr-68" value="" style="swimlane;fontStyle=2;childLayout=stackLayout;horizontal=1;startSize=28;horizontalStack=1;resizeParent=1;resizeParentMax=0;resizeLast=0;collapsible=0;marginBottom=0;swimlaneFillColor=none;fontFamily=Permanent Marker;fontSize=16;points=[];verticalAlign=top;stackBorder=0;resizable=1;strokeWidth=2;disableMultiStroke=1;" vertex="1" parent="NJDvE9kgN_ZWWw6jlsvr-1">
          <mxGeometry x="624" y="946" width="180" height="460" as="geometry" />
        </mxCell>
        <object label="Tbv Hardware opbouw" status="New" id="NJDvE9kgN_ZWWw6jlsvr-69">
          <mxCell style="swimlane;strokeWidth=2;fontFamily=Permanent Marker;html=0;startSize=1;verticalAlign=bottom;spacingBottom=5;points=[];childLayout=stackLayout;stackBorder=20;stackSpacing=20;resizeLast=0;resizeParent=1;horizontalStack=0;collapsible=0;strokeColor=none;fillStyle=solid;fillColor=#A0522D;" vertex="1" parent="NJDvE9kgN_ZWWw6jlsvr-68">
            <mxGeometry y="28" width="180" height="432" as="geometry" />
          </mxCell>
        </object>
        <object label="Kennis-sessies&lt;br&gt;Meer over electronica&lt;br&gt;&lt;br&gt;[uit MRB]" placeholders="1" id="NJDvE9kgN_ZWWw6jlsvr-70">
          <mxCell style="whiteSpace=wrap;html=1;strokeWidth=2;fillColor=#f5f5f5;fontStyle=1;spacingTop=0;rounded=1;arcSize=9;points=[];fontFamily=Permanent Marker;hachureGap=8;fillWeight=1;strokeColor=#666666;fontColor=#333333;" vertex="1" parent="NJDvE9kgN_ZWWw6jlsvr-69">
            <mxGeometry x="20" y="21" width="140" height="80" as="geometry" />
          </mxCell>
        </object>
        <object label="Workshop PID regeling (ventilatorwip)&lt;br&gt;&lt;br&gt;[uit MRB]" placeholders="1" id="NJDvE9kgN_ZWWw6jlsvr-78">
          <mxCell style="whiteSpace=wrap;html=1;strokeWidth=2;fillColor=#f5f5f5;fontStyle=1;spacingTop=0;rounded=1;arcSize=9;points=[];fontFamily=Permanent Marker;hachureGap=8;fillWeight=1;strokeColor=#666666;fontColor=#333333;" vertex="1" parent="NJDvE9kgN_ZWWw6jlsvr-69">
            <mxGeometry x="20" y="121" width="140" height="80" as="geometry" />
          </mxCell>
        </object>
        <object label="Aansturing (bldc) motoren, werkende voorbeelden" placeholders="1" id="NJDvE9kgN_ZWWw6jlsvr-71">
          <mxCell style="whiteSpace=wrap;html=1;strokeWidth=2;fillColor=#fff2cc;fontStyle=1;spacingTop=0;rounded=1;arcSize=9;points=[];fontFamily=Permanent Marker;hachureGap=8;fillWeight=1;strokeColor=#d6b656;sketch=1;curveFitting=1;jiggle=2;" vertex="1" parent="NJDvE9kgN_ZWWw6jlsvr-69">
            <mxGeometry x="20" y="221" width="140" height="80" as="geometry" />
          </mxCell>
        </object>
        <mxCell id="NJDvE9kgN_ZWWw6jlsvr-72" style="edgeStyle=orthogonalEdgeStyle;rounded=0;orthogonalLoop=1;jettySize=auto;html=1;" edge="1" parent="NJDvE9kgN_ZWWw6jlsvr-69">
          <mxGeometry relative="1" as="geometry">
            <mxPoint x="90" y="301" as="sourcePoint" />
            <mxPoint x="90" y="301" as="targetPoint" />
          </mxGeometry>
        </mxCell>
        <mxCell id="NJDvE9kgN_ZWWw6jlsvr-73" style="edgeStyle=orthogonalEdgeStyle;rounded=0;orthogonalLoop=1;jettySize=auto;html=1;" edge="1" parent="NJDvE9kgN_ZWWw6jlsvr-69">
          <mxGeometry relative="1" as="geometry">
            <mxPoint x="90" y="301" as="sourcePoint" />
            <mxPoint x="90" y="301" as="targetPoint" />
          </mxGeometry>
        </mxCell>
        <mxCell id="NJDvE9kgN_ZWWw6jlsvr-74" style="edgeStyle=orthogonalEdgeStyle;rounded=0;orthogonalLoop=1;jettySize=auto;html=1;" edge="1" parent="NJDvE9kgN_ZWWw6jlsvr-69">
          <mxGeometry relative="1" as="geometry">
            <mxPoint x="90" y="301" as="sourcePoint" />
            <mxPoint x="90" y="301" as="targetPoint" />
          </mxGeometry>
        </mxCell>
        <mxCell id="NJDvE9kgN_ZWWw6jlsvr-75" style="edgeStyle=orthogonalEdgeStyle;rounded=0;orthogonalLoop=1;jettySize=auto;html=1;" edge="1" parent="NJDvE9kgN_ZWWw6jlsvr-69">
          <mxGeometry relative="1" as="geometry">
            <mxPoint x="90" y="301" as="sourcePoint" />
            <mxPoint x="90" y="301" as="targetPoint" />
          </mxGeometry>
        </mxCell>
        <mxCell id="NJDvE9kgN_ZWWw6jlsvr-76" style="edgeStyle=orthogonalEdgeStyle;rounded=0;orthogonalLoop=1;jettySize=auto;html=1;" edge="1" parent="NJDvE9kgN_ZWWw6jlsvr-69">
          <mxGeometry relative="1" as="geometry">
            <mxPoint x="90" y="301" as="sourcePoint" />
            <mxPoint x="90" y="301" as="targetPoint" />
          </mxGeometry>
        </mxCell>
        <mxCell id="NJDvE9kgN_ZWWw6jlsvr-77" style="edgeStyle=orthogonalEdgeStyle;rounded=0;orthogonalLoop=1;jettySize=auto;html=1;" edge="1" parent="NJDvE9kgN_ZWWw6jlsvr-69">
          <mxGeometry relative="1" as="geometry">
            <mxPoint x="90" y="301" as="sourcePoint" />
            <mxPoint x="90" y="301" as="targetPoint" />
          </mxGeometry>
        </mxCell>
        <object label="Workshop Antennes&lt;br&gt;&lt;br&gt;[aanpassing voor ESP32 uit IOT minor]" placeholders="1" id="NJDvE9kgN_ZWWw6jlsvr-79">
          <mxCell style="whiteSpace=wrap;html=1;strokeWidth=2;fillColor=#f5f5f5;fontStyle=1;spacingTop=0;rounded=1;arcSize=9;points=[];fontFamily=Permanent Marker;hachureGap=8;fillWeight=1;strokeColor=#666666;fontColor=#333333;sketch=1;curveFitting=1;jiggle=2;" vertex="1" parent="NJDvE9kgN_ZWWw6jlsvr-69">
            <mxGeometry x="20" y="321" width="140" height="80" as="geometry" />
          </mxCell>
        </object>
        <mxCell id="NJDvE9kgN_ZWWw6jlsvr-80" value="" style="swimlane;fontStyle=2;childLayout=stackLayout;horizontal=1;startSize=28;horizontalStack=1;resizeParent=1;resizeParentMax=0;resizeLast=0;collapsible=0;marginBottom=0;swimlaneFillColor=none;fontFamily=Permanent Marker;fontSize=16;points=[];verticalAlign=top;stackBorder=0;resizable=1;strokeWidth=2;disableMultiStroke=1;fillColor=#f5f5f5;fontColor=#333333;strokeColor=#666666;" vertex="1" parent="NJDvE9kgN_ZWWw6jlsvr-1">
          <mxGeometry x="844" y="957" width="180" height="449" as="geometry" />
        </mxCell>
        <object label="Optioneel tbv Hardware" status="New" id="NJDvE9kgN_ZWWw6jlsvr-81">
          <mxCell style="swimlane;strokeWidth=2;fontFamily=Permanent Marker;html=0;startSize=1;verticalAlign=bottom;spacingBottom=5;points=[];childLayout=stackLayout;stackBorder=20;stackSpacing=20;resizeLast=0;resizeParent=1;horizontalStack=0;collapsible=0;strokeColor=#666666;fillStyle=solid;fillColor=default;fontColor=#333333;swimlaneFillColor=none;" vertex="1" parent="NJDvE9kgN_ZWWw6jlsvr-80">
            <mxGeometry y="28" width="180" height="421" as="geometry" />
          </mxCell>
        </object>
        <object label="(verwijzingen naar&lt;br&gt;/ suggesties voor)&lt;br&gt;&amp;nbsp;printplaat ontwerp" placeholders="1" id="NJDvE9kgN_ZWWw6jlsvr-82">
          <mxCell style="whiteSpace=wrap;html=1;strokeWidth=2;fillColor=#f5f5f5;fontStyle=1;spacingTop=0;rounded=1;arcSize=9;points=[];fontFamily=Permanent Marker;hachureGap=8;fillWeight=1;strokeColor=#666666;fontColor=#333333;sketch=1;curveFitting=1;jiggle=2;" vertex="1" parent="NJDvE9kgN_ZWWw6jlsvr-81">
            <mxGeometry x="20" y="21" width="140" height="80" as="geometry" />
          </mxCell>
        </object>
        <object label="Robotica workshop&lt;br&gt;[Deels beschikbaar]" placeholders="1" id="NJDvE9kgN_ZWWw6jlsvr-83">
          <mxCell style="whiteSpace=wrap;html=1;strokeWidth=2;fillColor=#f5f5f5;fontStyle=1;spacingTop=0;rounded=1;arcSize=9;points=[];fontFamily=Permanent Marker;hachureGap=8;fillWeight=1;strokeColor=#666666;fontColor=#333333;sketch=1;curveFitting=1;jiggle=2;" vertex="1" parent="NJDvE9kgN_ZWWw6jlsvr-81">
            <mxGeometry x="20" y="121" width="140" height="80" as="geometry" />
          </mxCell>
        </object>
        <object label="Workshops Digitale Electronica&lt;br&gt;[uit DIT]" placeholders="1" id="NJDvE9kgN_ZWWw6jlsvr-84">
          <mxCell style="whiteSpace=wrap;html=1;strokeWidth=2;fillColor=#f5f5f5;fontStyle=1;spacingTop=0;rounded=1;arcSize=9;points=[];fontFamily=Permanent Marker;hachureGap=8;fillWeight=1;strokeColor=#666666;fontColor=#333333;" vertex="1" parent="NJDvE9kgN_ZWWw6jlsvr-81">
            <mxGeometry x="20" y="221" width="140" height="80" as="geometry" />
          </mxCell>
        </object>
        <mxCell id="NJDvE9kgN_ZWWw6jlsvr-85" style="edgeStyle=orthogonalEdgeStyle;rounded=0;orthogonalLoop=1;jettySize=auto;html=1;" edge="1" parent="NJDvE9kgN_ZWWw6jlsvr-81">
          <mxGeometry relative="1" as="geometry">
            <mxPoint x="90" y="301" as="sourcePoint" />
            <mxPoint x="90" y="301" as="targetPoint" />
          </mxGeometry>
        </mxCell>
        <mxCell id="NJDvE9kgN_ZWWw6jlsvr-86" style="edgeStyle=orthogonalEdgeStyle;rounded=0;orthogonalLoop=1;jettySize=auto;html=1;" edge="1" parent="NJDvE9kgN_ZWWw6jlsvr-81">
          <mxGeometry relative="1" as="geometry">
            <mxPoint x="90" y="301" as="sourcePoint" />
            <mxPoint x="90" y="301" as="targetPoint" />
          </mxGeometry>
        </mxCell>
        <mxCell id="NJDvE9kgN_ZWWw6jlsvr-87" style="edgeStyle=orthogonalEdgeStyle;rounded=0;orthogonalLoop=1;jettySize=auto;html=1;" edge="1" parent="NJDvE9kgN_ZWWw6jlsvr-81">
          <mxGeometry relative="1" as="geometry">
            <mxPoint x="90" y="301" as="sourcePoint" />
            <mxPoint x="90" y="301" as="targetPoint" />
          </mxGeometry>
        </mxCell>
        <mxCell id="NJDvE9kgN_ZWWw6jlsvr-88" style="edgeStyle=orthogonalEdgeStyle;rounded=0;orthogonalLoop=1;jettySize=auto;html=1;" edge="1" parent="NJDvE9kgN_ZWWw6jlsvr-81">
          <mxGeometry relative="1" as="geometry">
            <mxPoint x="90" y="301" as="sourcePoint" />
            <mxPoint x="90" y="301" as="targetPoint" />
          </mxGeometry>
        </mxCell>
        <mxCell id="NJDvE9kgN_ZWWw6jlsvr-89" style="edgeStyle=orthogonalEdgeStyle;rounded=0;orthogonalLoop=1;jettySize=auto;html=1;" edge="1" parent="NJDvE9kgN_ZWWw6jlsvr-81">
          <mxGeometry relative="1" as="geometry">
            <mxPoint x="90" y="301" as="sourcePoint" />
            <mxPoint x="90" y="301" as="targetPoint" />
          </mxGeometry>
        </mxCell>
        <mxCell id="NJDvE9kgN_ZWWw6jlsvr-90" style="edgeStyle=orthogonalEdgeStyle;rounded=0;orthogonalLoop=1;jettySize=auto;html=1;" edge="1" parent="NJDvE9kgN_ZWWw6jlsvr-81">
          <mxGeometry relative="1" as="geometry">
            <mxPoint x="90" y="301" as="sourcePoint" />
            <mxPoint x="90" y="301" as="targetPoint" />
          </mxGeometry>
        </mxCell>
        <object label="Workshop PLC programmeren" placeholders="1" id="NJDvE9kgN_ZWWw6jlsvr-91">
          <mxCell style="whiteSpace=wrap;html=1;strokeWidth=2;fillColor=#f5f5f5;fontStyle=1;spacingTop=0;rounded=1;arcSize=9;points=[];fontFamily=Permanent Marker;hachureGap=8;fillWeight=1;strokeColor=#666666;fontColor=#333333;sketch=1;curveFitting=1;jiggle=2;" vertex="1" parent="NJDvE9kgN_ZWWw6jlsvr-81">
            <mxGeometry x="20" y="321" width="140" height="80" as="geometry" />
          </mxCell>
        </object>
        <mxCell id="NJDvE9kgN_ZWWw6jlsvr-92" value="Triviale Agile/Scrum Procesmatigheden (bijhouden van scrum logboek, periodieke retro en reflectie, presenteren en opleveren) zijn niet expliciet vermeld, maar wel als ongoing beschouwd." style="shape=note;size=15;align=left;spacingLeft=10;html=1;whiteSpace=wrap;" vertex="1" parent="NJDvE9kgN_ZWWw6jlsvr-1">
          <mxGeometry x="-394" y="706" width="160" height="150" as="geometry" />
        </mxCell>
        <mxCell id="NJDvE9kgN_ZWWw6jlsvr-93" value="" style="swimlane;fontStyle=2;childLayout=stackLayout;horizontal=1;startSize=28;horizontalStack=1;resizeParent=1;resizeParentMax=0;resizeLast=0;collapsible=0;marginBottom=0;swimlaneFillColor=none;fontFamily=Permanent Marker;fontSize=16;points=[];verticalAlign=top;stackBorder=0;resizable=1;strokeWidth=2;disableMultiStroke=1;fillColor=#f5f5f5;fontColor=#333333;strokeColor=#666666;" vertex="1" parent="NJDvE9kgN_ZWWw6jlsvr-1">
          <mxGeometry x="1054" y="957" width="180" height="449" as="geometry" />
        </mxCell>
        <object label="Optioneel tbv Software" status="New" id="NJDvE9kgN_ZWWw6jlsvr-94">
          <mxCell style="swimlane;strokeWidth=2;fontFamily=Permanent Marker;html=0;startSize=1;verticalAlign=bottom;spacingBottom=5;points=[];childLayout=stackLayout;stackBorder=20;stackSpacing=20;resizeLast=0;resizeParent=1;horizontalStack=0;collapsible=0;strokeColor=#666666;fillStyle=solid;fillColor=#f5f5f5;fontColor=#333333;swimlaneFillColor=none;" vertex="1" parent="NJDvE9kgN_ZWWw6jlsvr-93">
            <mxGeometry y="28" width="180" height="421" as="geometry" />
          </mxCell>
        </object>
        <object label="Computer Vision&lt;br&gt;[uit Computer Vision]" placeholders="1" id="NJDvE9kgN_ZWWw6jlsvr-95">
          <mxCell style="whiteSpace=wrap;html=1;strokeWidth=2;fillColor=#f5f5f5;fontStyle=1;spacingTop=0;rounded=1;arcSize=9;points=[];fontFamily=Permanent Marker;hachureGap=8;fillWeight=1;strokeColor=#666666;fontColor=#333333;" vertex="1" parent="NJDvE9kgN_ZWWw6jlsvr-94">
            <mxGeometry x="20" y="21" width="140" height="80" as="geometry" />
          </mxCell>
        </object>
        <object label="Clusteren met Kmeans&lt;br&gt;[uit AAI]" placeholders="1" id="NJDvE9kgN_ZWWw6jlsvr-96">
          <mxCell style="whiteSpace=wrap;html=1;strokeWidth=2;fillColor=#f5f5f5;fontStyle=1;spacingTop=0;rounded=1;arcSize=9;points=[];fontFamily=Permanent Marker;hachureGap=8;fillWeight=1;strokeColor=#666666;fontColor=#333333;" vertex="1" parent="NJDvE9kgN_ZWWw6jlsvr-94">
            <mxGeometry x="20" y="121" width="140" height="80" as="geometry" />
          </mxCell>
        </object>
        <object label="Classificatie met eenvoudig neuraal netwerkje&lt;br&gt;[uit AAI]" placeholders="1" id="NJDvE9kgN_ZWWw6jlsvr-97">
          <mxCell style="whiteSpace=wrap;html=1;strokeWidth=2;fillColor=#f5f5f5;fontStyle=1;spacingTop=0;rounded=1;arcSize=9;points=[];fontFamily=Permanent Marker;hachureGap=8;fillWeight=1;strokeColor=#666666;fontColor=#333333;" vertex="1" parent="NJDvE9kgN_ZWWw6jlsvr-94">
            <mxGeometry x="20" y="221" width="140" height="80" as="geometry" />
          </mxCell>
        </object>
        <mxCell id="NJDvE9kgN_ZWWw6jlsvr-98" style="edgeStyle=orthogonalEdgeStyle;rounded=0;orthogonalLoop=1;jettySize=auto;html=1;" edge="1" parent="NJDvE9kgN_ZWWw6jlsvr-94">
          <mxGeometry relative="1" as="geometry">
            <mxPoint x="90" y="301" as="sourcePoint" />
            <mxPoint x="90" y="301" as="targetPoint" />
          </mxGeometry>
        </mxCell>
        <mxCell id="NJDvE9kgN_ZWWw6jlsvr-99" style="edgeStyle=orthogonalEdgeStyle;rounded=0;orthogonalLoop=1;jettySize=auto;html=1;" edge="1" parent="NJDvE9kgN_ZWWw6jlsvr-94">
          <mxGeometry relative="1" as="geometry">
            <mxPoint x="90" y="301" as="sourcePoint" />
            <mxPoint x="90" y="301" as="targetPoint" />
          </mxGeometry>
        </mxCell>
        <mxCell id="NJDvE9kgN_ZWWw6jlsvr-100" style="edgeStyle=orthogonalEdgeStyle;rounded=0;orthogonalLoop=1;jettySize=auto;html=1;" edge="1" parent="NJDvE9kgN_ZWWw6jlsvr-94">
          <mxGeometry relative="1" as="geometry">
            <mxPoint x="90" y="301" as="sourcePoint" />
            <mxPoint x="90" y="301" as="targetPoint" />
          </mxGeometry>
        </mxCell>
        <mxCell id="NJDvE9kgN_ZWWw6jlsvr-101" style="edgeStyle=orthogonalEdgeStyle;rounded=0;orthogonalLoop=1;jettySize=auto;html=1;" edge="1" parent="NJDvE9kgN_ZWWw6jlsvr-94">
          <mxGeometry relative="1" as="geometry">
            <mxPoint x="90" y="301" as="sourcePoint" />
            <mxPoint x="90" y="301" as="targetPoint" />
          </mxGeometry>
        </mxCell>
        <mxCell id="NJDvE9kgN_ZWWw6jlsvr-102" style="edgeStyle=orthogonalEdgeStyle;rounded=0;orthogonalLoop=1;jettySize=auto;html=1;" edge="1" parent="NJDvE9kgN_ZWWw6jlsvr-94">
          <mxGeometry relative="1" as="geometry">
            <mxPoint x="90" y="301" as="sourcePoint" />
            <mxPoint x="90" y="301" as="targetPoint" />
          </mxGeometry>
        </mxCell>
        <mxCell id="NJDvE9kgN_ZWWw6jlsvr-103" style="edgeStyle=orthogonalEdgeStyle;rounded=0;orthogonalLoop=1;jettySize=auto;html=1;" edge="1" parent="NJDvE9kgN_ZWWw6jlsvr-94">
          <mxGeometry relative="1" as="geometry">
            <mxPoint x="90" y="301" as="sourcePoint" />
            <mxPoint x="90" y="301" as="targetPoint" />
          </mxGeometry>
        </mxCell>
        <object label="Evolutionair programmeren&lt;br&gt;[uit AAI]" placeholders="1" id="NJDvE9kgN_ZWWw6jlsvr-104">
          <mxCell style="whiteSpace=wrap;html=1;strokeWidth=2;fillColor=#f5f5f5;fontStyle=1;spacingTop=0;rounded=1;arcSize=9;points=[];fontFamily=Permanent Marker;hachureGap=8;fillWeight=1;strokeColor=#666666;fontColor=#333333;" vertex="1" parent="NJDvE9kgN_ZWWw6jlsvr-94">
            <mxGeometry x="20" y="321" width="140" height="80" as="geometry" />
          </mxCell>
        </object>
        <mxCell id="FJFDZiy_noSnRlDAXiye-39" value="" style="swimlane;fontStyle=2;childLayout=stackLayout;horizontal=1;startSize=28;horizontalStack=1;resizeParent=1;resizeParentMax=0;resizeLast=0;collapsible=0;marginBottom=0;swimlaneFillColor=none;fontFamily=Permanent Marker;fontSize=16;points=[];verticalAlign=top;stackBorder=0;resizable=1;strokeWidth=2;disableMultiStroke=1;" vertex="1" parent="NJDvE9kgN_ZWWw6jlsvr-1">
          <mxGeometry x="-18" y="1142" width="180" height="250" as="geometry" />
        </mxCell>
        <object label="Opties ter afwisseling" status="New" id="FJFDZiy_noSnRlDAXiye-40">
          <mxCell style="swimlane;strokeWidth=2;fontFamily=Permanent Marker;html=0;startSize=1;verticalAlign=bottom;spacingBottom=5;points=[];childLayout=stackLayout;stackBorder=20;stackSpacing=20;resizeLast=0;resizeParent=1;horizontalStack=0;collapsible=0;strokeColor=none;fillStyle=solid;fillColor=#A0522D;" vertex="1" parent="FJFDZiy_noSnRlDAXiye-39">
            <mxGeometry y="28" width="180" height="222" as="geometry" />
          </mxCell>
        </object>
        <object label="Uitstapje?" placeholders="1" id="FJFDZiy_noSnRlDAXiye-41">
          <mxCell style="whiteSpace=wrap;html=1;strokeWidth=2;fillColor=#f5f5f5;fontStyle=1;spacingTop=0;rounded=1;arcSize=9;points=[];fontFamily=Permanent Marker;hachureGap=8;fillWeight=1;strokeColor=#666666;fontColor=#333333;sketch=1;curveFitting=1;jiggle=2;" vertex="1" parent="FJFDZiy_noSnRlDAXiye-40">
            <mxGeometry x="20" y="21" width="140" height="80" as="geometry" />
          </mxCell>
        </object>
        <object label="Spreker uit praktijk?" placeholders="1" id="FJFDZiy_noSnRlDAXiye-42">
          <mxCell style="whiteSpace=wrap;html=1;strokeWidth=2;fillColor=#f5f5f5;fontStyle=1;spacingTop=0;rounded=1;arcSize=9;points=[];fontFamily=Permanent Marker;hachureGap=8;fillWeight=1;strokeColor=#666666;fontColor=#333333;sketch=1;curveFitting=1;jiggle=2;" vertex="1" parent="FJFDZiy_noSnRlDAXiye-40">
            <mxGeometry x="20" y="121" width="140" height="80" as="geometry" />
          </mxCell>
        </object>
        <mxCell id="FJFDZiy_noSnRlDAXiye-43" style="edgeStyle=orthogonalEdgeStyle;rounded=0;orthogonalLoop=1;jettySize=auto;html=1;" edge="1" parent="FJFDZiy_noSnRlDAXiye-40">
          <mxGeometry relative="1" as="geometry">
            <mxPoint x="-120" y="132" as="sourcePoint" />
            <mxPoint x="-120" y="132" as="targetPoint" />
          </mxGeometry>
        </mxCell>
        <mxCell id="FJFDZiy_noSnRlDAXiye-44" style="edgeStyle=orthogonalEdgeStyle;rounded=0;orthogonalLoop=1;jettySize=auto;html=1;" edge="1" parent="FJFDZiy_noSnRlDAXiye-40">
          <mxGeometry relative="1" as="geometry">
            <mxPoint x="-120" y="132" as="sourcePoint" />
            <mxPoint x="-120" y="132" as="targetPoint" />
          </mxGeometry>
        </mxCell>
        <mxCell id="FJFDZiy_noSnRlDAXiye-45" style="edgeStyle=orthogonalEdgeStyle;rounded=0;orthogonalLoop=1;jettySize=auto;html=1;" edge="1" parent="FJFDZiy_noSnRlDAXiye-40">
          <mxGeometry relative="1" as="geometry">
            <mxPoint x="-120" y="132" as="sourcePoint" />
            <mxPoint x="-120" y="132" as="targetPoint" />
          </mxGeometry>
        </mxCell>
        <mxCell id="FJFDZiy_noSnRlDAXiye-46" style="edgeStyle=orthogonalEdgeStyle;rounded=0;orthogonalLoop=1;jettySize=auto;html=1;" edge="1" parent="FJFDZiy_noSnRlDAXiye-40">
          <mxGeometry relative="1" as="geometry">
            <mxPoint x="-120" y="132" as="sourcePoint" />
            <mxPoint x="-120" y="132" as="targetPoint" />
          </mxGeometry>
        </mxCell>
        <mxCell id="FJFDZiy_noSnRlDAXiye-47" style="edgeStyle=orthogonalEdgeStyle;rounded=0;orthogonalLoop=1;jettySize=auto;html=1;" edge="1" parent="FJFDZiy_noSnRlDAXiye-40">
          <mxGeometry relative="1" as="geometry">
            <mxPoint x="-120" y="132" as="sourcePoint" />
            <mxPoint x="-120" y="132" as="targetPoint" />
          </mxGeometry>
        </mxCell>
        <mxCell id="FJFDZiy_noSnRlDAXiye-48" style="edgeStyle=orthogonalEdgeStyle;rounded=0;orthogonalLoop=1;jettySize=auto;html=1;" edge="1" parent="FJFDZiy_noSnRlDAXiye-40">
          <mxGeometry relative="1" as="geometry">
            <mxPoint x="-120" y="132" as="sourcePoint" />
            <mxPoint x="-120" y="132" as="targetPoint" />
          </mxGeometry>
        </mxCell>
        <mxCell id="FJFDZiy_noSnRlDAXiye-49" value=" Documentatie en voorbeelden: &#xa;Reader System &#xa;Engineering" style="swimlane;fontStyle=0;childLayout=stackLayout;horizontal=1;startSize=70;horizontalStack=1;resizeParent=1;resizeParentMax=0;resizeLast=0;collapsible=0;marginBottom=0;swimlaneFillColor=none;fontFamily=Permanent Marker;fontSize=16;points=[];verticalAlign=top;stackBorder=0;resizable=1;strokeWidth=2;disableMultiStroke=1;strokeColor=default;" vertex="1" parent="NJDvE9kgN_ZWWw6jlsvr-1">
          <mxGeometry x="626" y="143" width="360" height="790" as="geometry" />
        </mxCell>
        <object label="" status="New" id="FJFDZiy_noSnRlDAXiye-59">
          <mxCell style="swimlane;strokeWidth=2;fontFamily=Permanent Marker;html=0;startSize=1;verticalAlign=bottom;spacingBottom=5;points=[];childLayout=stackLayout;stackBorder=20;stackSpacing=20;resizeLast=0;resizeParent=1;horizontalStack=0;collapsible=0;strokeColor=none;fillStyle=solid;fillColor=none;" vertex="1" parent="FJFDZiy_noSnRlDAXiye-49">
            <mxGeometry y="70" width="180" height="720" as="geometry" />
          </mxCell>
        </object>
        <mxCell id="FJFDZiy_noSnRlDAXiye-62" style="edgeStyle=orthogonalEdgeStyle;rounded=0;orthogonalLoop=1;jettySize=auto;html=1;fillColor=#f5f5f5;strokeColor=#666666;" edge="1" parent="FJFDZiy_noSnRlDAXiye-59">
          <mxGeometry relative="1" as="geometry">
            <mxPoint x="90" y="301" as="sourcePoint" />
            <mxPoint x="90" y="301" as="targetPoint" />
          </mxGeometry>
        </mxCell>
        <mxCell id="FJFDZiy_noSnRlDAXiye-63" style="edgeStyle=orthogonalEdgeStyle;rounded=0;orthogonalLoop=1;jettySize=auto;html=1;fillColor=#f5f5f5;strokeColor=#666666;" edge="1" parent="FJFDZiy_noSnRlDAXiye-59">
          <mxGeometry relative="1" as="geometry">
            <mxPoint x="90" y="301" as="sourcePoint" />
            <mxPoint x="90" y="301" as="targetPoint" />
          </mxGeometry>
        </mxCell>
        <mxCell id="FJFDZiy_noSnRlDAXiye-64" style="edgeStyle=orthogonalEdgeStyle;rounded=0;orthogonalLoop=1;jettySize=auto;html=1;fillColor=#f5f5f5;strokeColor=#666666;" edge="1" parent="FJFDZiy_noSnRlDAXiye-59">
          <mxGeometry relative="1" as="geometry">
            <mxPoint x="90" y="301" as="sourcePoint" />
            <mxPoint x="90" y="301" as="targetPoint" />
          </mxGeometry>
        </mxCell>
        <mxCell id="FJFDZiy_noSnRlDAXiye-65" style="edgeStyle=orthogonalEdgeStyle;rounded=0;orthogonalLoop=1;jettySize=auto;html=1;fillColor=#f5f5f5;strokeColor=#666666;" edge="1" parent="FJFDZiy_noSnRlDAXiye-59">
          <mxGeometry relative="1" as="geometry">
            <mxPoint x="90" y="301" as="sourcePoint" />
            <mxPoint x="90" y="301" as="targetPoint" />
          </mxGeometry>
        </mxCell>
        <mxCell id="FJFDZiy_noSnRlDAXiye-66" style="edgeStyle=orthogonalEdgeStyle;rounded=0;orthogonalLoop=1;jettySize=auto;html=1;fillColor=#f5f5f5;strokeColor=#666666;" edge="1" parent="FJFDZiy_noSnRlDAXiye-59">
          <mxGeometry relative="1" as="geometry">
            <mxPoint x="90" y="301" as="sourcePoint" />
            <mxPoint x="90" y="301" as="targetPoint" />
          </mxGeometry>
        </mxCell>
        <mxCell id="FJFDZiy_noSnRlDAXiye-67" style="edgeStyle=orthogonalEdgeStyle;rounded=0;orthogonalLoop=1;jettySize=auto;html=1;fillColor=#f5f5f5;strokeColor=#666666;" edge="1" parent="FJFDZiy_noSnRlDAXiye-59">
          <mxGeometry relative="1" as="geometry">
            <mxPoint x="90" y="301" as="sourcePoint" />
            <mxPoint x="90" y="301" as="targetPoint" />
          </mxGeometry>
        </mxCell>
        <object label="Inleiding System Engineering" placeholders="1" id="NJDvE9kgN_ZWWw6jlsvr-6">
          <mxCell style="whiteSpace=wrap;html=1;strokeWidth=2;fillColor=#f5f5f5;fontStyle=1;spacingTop=0;rounded=1;arcSize=9;points=[];fontFamily=Permanent Marker;hachureGap=8;fillWeight=1;strokeColor=#666666;fontColor=#333333;" vertex="1" parent="FJFDZiy_noSnRlDAXiye-59">
            <mxGeometry x="20" y="21" width="140" height="80" as="geometry" />
          </mxCell>
        </object>
        <object label="Systeem Context&lt;br&gt;Diagram,&lt;br&gt;Identificatie van Stakeholders en Key Drivers" placeholders="1" id="NJDvE9kgN_ZWWw6jlsvr-7">
          <mxCell style="whiteSpace=wrap;html=1;strokeWidth=2;fillColor=#f5f5f5;fontStyle=1;spacingTop=0;rounded=1;arcSize=9;points=[];fontFamily=Permanent Marker;hachureGap=8;fillWeight=1;strokeColor=#666666;fontColor=#333333;" vertex="1" parent="FJFDZiy_noSnRlDAXiye-59">
            <mxGeometry x="20" y="121" width="140" height="80" as="geometry" />
          </mxCell>
        </object>
        <object label="Prioritering van Stakeholders,&amp;nbsp;&lt;br&gt;Formulering van application Drivers" placeholders="1" id="NJDvE9kgN_ZWWw6jlsvr-8">
          <mxCell style="whiteSpace=wrap;html=1;strokeWidth=2;fillColor=#f5f5f5;fontStyle=1;spacingTop=0;rounded=1;arcSize=9;points=[];fontFamily=Permanent Marker;hachureGap=8;fillWeight=1;strokeColor=#666666;fontColor=#333333;" vertex="1" parent="FJFDZiy_noSnRlDAXiye-59">
            <mxGeometry x="20" y="221" width="140" height="80" as="geometry" />
          </mxCell>
        </object>
        <object label="Key-driver Graph opstellen" placeholders="1" id="NJDvE9kgN_ZWWw6jlsvr-9">
          <mxCell style="whiteSpace=wrap;html=1;strokeWidth=2;fillColor=#f5f5f5;fontStyle=1;spacingTop=0;rounded=1;arcSize=9;points=[];fontFamily=Permanent Marker;hachureGap=8;fillWeight=1;strokeColor=#666666;fontColor=#333333;" vertex="1" parent="FJFDZiy_noSnRlDAXiye-59">
            <mxGeometry x="20" y="321" width="140" height="80" as="geometry" />
          </mxCell>
        </object>
        <object label="Functional Requirements opstellen" placeholders="1" id="NJDvE9kgN_ZWWw6jlsvr-10">
          <mxCell style="whiteSpace=wrap;html=1;strokeWidth=2;fillColor=#f5f5f5;fontStyle=1;spacingTop=0;rounded=1;arcSize=9;points=[];fontFamily=Permanent Marker;hachureGap=8;fillWeight=1;strokeColor=#666666;fontColor=#333333;" vertex="1" parent="FJFDZiy_noSnRlDAXiye-59">
            <mxGeometry x="20" y="421" width="140" height="80" as="geometry" />
          </mxCell>
        </object>
        <object label="Non Functional Requirements opstellen" placeholders="1" id="NJDvE9kgN_ZWWw6jlsvr-11">
          <mxCell style="whiteSpace=wrap;html=1;strokeWidth=2;fillColor=#f5f5f5;fontStyle=1;spacingTop=0;rounded=1;arcSize=9;points=[];fontFamily=Permanent Marker;hachureGap=8;fillWeight=1;strokeColor=#666666;fontColor=#333333;" vertex="1" parent="FJFDZiy_noSnRlDAXiye-59">
            <mxGeometry x="20" y="521" width="140" height="80" as="geometry" />
          </mxCell>
        </object>
        <object label="" status="New" id="FJFDZiy_noSnRlDAXiye-77">
          <mxCell style="swimlane;strokeWidth=2;fontFamily=Permanent Marker;html=0;startSize=1;verticalAlign=bottom;spacingBottom=5;points=[];childLayout=stackLayout;stackBorder=20;stackSpacing=20;resizeLast=0;resizeParent=1;horizontalStack=0;collapsible=0;strokeColor=none;fillStyle=solid;fillColor=none;" vertex="1" parent="FJFDZiy_noSnRlDAXiye-49">
            <mxGeometry x="180" y="70" width="180" height="721" as="geometry" />
          </mxCell>
        </object>
        <mxCell id="FJFDZiy_noSnRlDAXiye-78" style="edgeStyle=orthogonalEdgeStyle;rounded=0;orthogonalLoop=1;jettySize=auto;html=1;fillColor=#f5f5f5;strokeColor=#666666;" edge="1" parent="FJFDZiy_noSnRlDAXiye-77">
          <mxGeometry relative="1" as="geometry">
            <mxPoint x="90" y="301" as="sourcePoint" />
            <mxPoint x="90" y="301" as="targetPoint" />
          </mxGeometry>
        </mxCell>
        <mxCell id="FJFDZiy_noSnRlDAXiye-79" style="edgeStyle=orthogonalEdgeStyle;rounded=0;orthogonalLoop=1;jettySize=auto;html=1;fillColor=#f5f5f5;strokeColor=#666666;" edge="1" parent="FJFDZiy_noSnRlDAXiye-77">
          <mxGeometry relative="1" as="geometry">
            <mxPoint x="90" y="301" as="sourcePoint" />
            <mxPoint x="90" y="301" as="targetPoint" />
          </mxGeometry>
        </mxCell>
        <mxCell id="FJFDZiy_noSnRlDAXiye-80" style="edgeStyle=orthogonalEdgeStyle;rounded=0;orthogonalLoop=1;jettySize=auto;html=1;fillColor=#f5f5f5;strokeColor=#666666;" edge="1" parent="FJFDZiy_noSnRlDAXiye-77">
          <mxGeometry relative="1" as="geometry">
            <mxPoint x="90" y="301" as="sourcePoint" />
            <mxPoint x="90" y="301" as="targetPoint" />
          </mxGeometry>
        </mxCell>
        <mxCell id="FJFDZiy_noSnRlDAXiye-81" style="edgeStyle=orthogonalEdgeStyle;rounded=0;orthogonalLoop=1;jettySize=auto;html=1;fillColor=#f5f5f5;strokeColor=#666666;" edge="1" parent="FJFDZiy_noSnRlDAXiye-77">
          <mxGeometry relative="1" as="geometry">
            <mxPoint x="90" y="301" as="sourcePoint" />
            <mxPoint x="90" y="301" as="targetPoint" />
          </mxGeometry>
        </mxCell>
        <mxCell id="FJFDZiy_noSnRlDAXiye-82" style="edgeStyle=orthogonalEdgeStyle;rounded=0;orthogonalLoop=1;jettySize=auto;html=1;fillColor=#f5f5f5;strokeColor=#666666;" edge="1" parent="FJFDZiy_noSnRlDAXiye-77">
          <mxGeometry relative="1" as="geometry">
            <mxPoint x="90" y="301" as="sourcePoint" />
            <mxPoint x="90" y="301" as="targetPoint" />
          </mxGeometry>
        </mxCell>
        <mxCell id="FJFDZiy_noSnRlDAXiye-83" style="edgeStyle=orthogonalEdgeStyle;rounded=0;orthogonalLoop=1;jettySize=auto;html=1;fillColor=#f5f5f5;strokeColor=#666666;" edge="1" parent="FJFDZiy_noSnRlDAXiye-77">
          <mxGeometry relative="1" as="geometry">
            <mxPoint x="90" y="301" as="sourcePoint" />
            <mxPoint x="90" y="301" as="targetPoint" />
          </mxGeometry>
        </mxCell>
        <object label="Constraints opstellen" placeholders="1" id="NJDvE9kgN_ZWWw6jlsvr-12">
          <mxCell style="whiteSpace=wrap;html=1;strokeWidth=2;fillColor=#f5f5f5;fontStyle=1;spacingTop=0;rounded=1;arcSize=9;points=[];fontFamily=Permanent Marker;hachureGap=8;fillWeight=1;strokeColor=#666666;fontColor=#333333;" vertex="1" parent="FJFDZiy_noSnRlDAXiye-77">
            <mxGeometry x="20" y="21" width="140" height="80" as="geometry" />
          </mxCell>
        </object>
        <object label="Use Case Diagram,&lt;br&gt;Use Case beschrijvingen" placeholders="1" id="NJDvE9kgN_ZWWw6jlsvr-13">
          <mxCell style="whiteSpace=wrap;html=1;strokeWidth=2;fillColor=#f5f5f5;fontStyle=1;spacingTop=0;rounded=1;arcSize=9;points=[];fontFamily=Permanent Marker;hachureGap=8;fillWeight=1;strokeColor=#666666;fontColor=#333333;" vertex="1" parent="FJFDZiy_noSnRlDAXiye-77">
            <mxGeometry x="20" y="121" width="140" height="80" as="geometry" />
          </mxCell>
        </object>
        <object label="ActivityDiagrammen" placeholders="1" id="FJFDZiy_noSnRlDAXiye-92">
          <mxCell style="whiteSpace=wrap;html=1;strokeWidth=2;fillColor=#f5f5f5;fontStyle=1;spacingTop=0;rounded=1;arcSize=9;points=[];fontFamily=Permanent Marker;hachureGap=8;fillWeight=1;strokeColor=#666666;fontColor=#333333;" vertex="1" parent="FJFDZiy_noSnRlDAXiye-77">
            <mxGeometry x="20" y="221" width="140" height="80" as="geometry" />
          </mxCell>
        </object>
        <object label="Logische View" placeholders="1" id="NJDvE9kgN_ZWWw6jlsvr-15">
          <mxCell style="whiteSpace=wrap;html=1;strokeWidth=2;fillColor=#f5f5f5;fontStyle=1;spacingTop=0;rounded=1;arcSize=9;points=[];fontFamily=Permanent Marker;hachureGap=8;fillWeight=1;strokeColor=#666666;fontColor=#333333;" vertex="1" parent="FJFDZiy_noSnRlDAXiye-77">
            <mxGeometry x="20" y="321" width="140" height="80" as="geometry" />
          </mxCell>
        </object>
        <object label="Tracability Diagram naar elementen Logische View" placeholders="1" id="NJDvE9kgN_ZWWw6jlsvr-16">
          <mxCell style="whiteSpace=wrap;html=1;strokeWidth=2;fillColor=#f5f5f5;fontStyle=1;spacingTop=0;rounded=1;arcSize=9;points=[];fontFamily=Permanent Marker;hachureGap=8;fillWeight=1;strokeColor=#666666;fontColor=#333333;" vertex="1" parent="FJFDZiy_noSnRlDAXiye-77">
            <mxGeometry x="20" y="421" width="140" height="80" as="geometry" />
          </mxCell>
        </object>
        <object label="Physical View /&lt;br&gt;Block Diagram" placeholders="1" id="NJDvE9kgN_ZWWw6jlsvr-17">
          <mxCell style="whiteSpace=wrap;html=1;strokeWidth=2;fillColor=#f5f5f5;fontStyle=1;spacingTop=0;rounded=1;arcSize=9;points=[];fontFamily=Permanent Marker;hachureGap=8;fillWeight=1;strokeColor=#666666;fontColor=#333333;" vertex="1" parent="FJFDZiy_noSnRlDAXiye-77">
            <mxGeometry x="20" y="521" width="140" height="80" as="geometry" />
          </mxCell>
        </object>
        <object label="Internal Block Diagram" placeholders="1" id="FJFDZiy_noSnRlDAXiye-129">
          <mxCell style="whiteSpace=wrap;html=1;strokeWidth=2;fillColor=#f5f5f5;fontStyle=1;spacingTop=0;rounded=1;arcSize=9;points=[];fontFamily=Permanent Marker;hachureGap=8;fillWeight=1;strokeColor=#666666;fontColor=#333333;" vertex="1" parent="FJFDZiy_noSnRlDAXiye-77">
            <mxGeometry x="20" y="621" width="140" height="80" as="geometry" />
          </mxCell>
        </object>
        <mxCell id="FJFDZiy_noSnRlDAXiye-93" value="&lt;b&gt;Week 1&lt;/b&gt;" style="text;html=1;strokeColor=none;fillColor=none;align=center;verticalAlign=middle;whiteSpace=wrap;rounded=0;" vertex="1" parent="NJDvE9kgN_ZWWw6jlsvr-1">
          <mxGeometry x="220" y="260" width="60" height="30" as="geometry" />
        </mxCell>
        <mxCell id="FJFDZiy_noSnRlDAXiye-94" value=" Documentatie en voorbeelden ontwerpflow&#xa;voor concurrent software op RTOS: &#xa;Design like a Robot&#xa;en andere CSM docs&#xa;- hiervan komen ook plenaire besprekingen &#xa;van oefeningen -" style="swimlane;fontStyle=0;childLayout=stackLayout;horizontal=1;startSize=135;horizontalStack=1;resizeParent=1;resizeParentMax=0;resizeLast=0;collapsible=0;marginBottom=0;swimlaneFillColor=none;fontFamily=Permanent Marker;fontSize=16;points=[];verticalAlign=top;stackBorder=0;resizable=1;strokeWidth=2;disableMultiStroke=1;strokeColor=default;" vertex="1" parent="NJDvE9kgN_ZWWw6jlsvr-1">
          <mxGeometry x="-198" y="98" width="360" height="559" as="geometry" />
        </mxCell>
        <object label="" status="New" id="FJFDZiy_noSnRlDAXiye-95">
          <mxCell style="swimlane;strokeWidth=2;fontFamily=Permanent Marker;html=0;startSize=1;verticalAlign=bottom;spacingBottom=5;points=[];childLayout=stackLayout;stackBorder=20;stackSpacing=20;resizeLast=0;resizeParent=1;horizontalStack=0;collapsible=0;strokeColor=none;fillStyle=solid;fillColor=none;" vertex="1" parent="FJFDZiy_noSnRlDAXiye-94">
            <mxGeometry y="135" width="180" height="424" as="geometry" />
          </mxCell>
        </object>
        <mxCell id="FJFDZiy_noSnRlDAXiye-96" style="edgeStyle=orthogonalEdgeStyle;rounded=0;orthogonalLoop=1;jettySize=auto;html=1;" edge="1" parent="FJFDZiy_noSnRlDAXiye-95">
          <mxGeometry relative="1" as="geometry">
            <mxPoint x="90" y="301" as="sourcePoint" />
            <mxPoint x="90" y="301" as="targetPoint" />
          </mxGeometry>
        </mxCell>
        <mxCell id="FJFDZiy_noSnRlDAXiye-97" style="edgeStyle=orthogonalEdgeStyle;rounded=0;orthogonalLoop=1;jettySize=auto;html=1;" edge="1" parent="FJFDZiy_noSnRlDAXiye-95">
          <mxGeometry relative="1" as="geometry">
            <mxPoint x="90" y="301" as="sourcePoint" />
            <mxPoint x="90" y="301" as="targetPoint" />
          </mxGeometry>
        </mxCell>
        <mxCell id="FJFDZiy_noSnRlDAXiye-98" style="edgeStyle=orthogonalEdgeStyle;rounded=0;orthogonalLoop=1;jettySize=auto;html=1;" edge="1" parent="FJFDZiy_noSnRlDAXiye-95">
          <mxGeometry relative="1" as="geometry">
            <mxPoint x="90" y="301" as="sourcePoint" />
            <mxPoint x="90" y="301" as="targetPoint" />
          </mxGeometry>
        </mxCell>
        <mxCell id="FJFDZiy_noSnRlDAXiye-99" style="edgeStyle=orthogonalEdgeStyle;rounded=0;orthogonalLoop=1;jettySize=auto;html=1;" edge="1" parent="FJFDZiy_noSnRlDAXiye-95">
          <mxGeometry relative="1" as="geometry">
            <mxPoint x="90" y="301" as="sourcePoint" />
            <mxPoint x="90" y="301" as="targetPoint" />
          </mxGeometry>
        </mxCell>
        <mxCell id="FJFDZiy_noSnRlDAXiye-100" style="edgeStyle=orthogonalEdgeStyle;rounded=0;orthogonalLoop=1;jettySize=auto;html=1;" edge="1" parent="FJFDZiy_noSnRlDAXiye-95">
          <mxGeometry relative="1" as="geometry">
            <mxPoint x="90" y="301" as="sourcePoint" />
            <mxPoint x="90" y="301" as="targetPoint" />
          </mxGeometry>
        </mxCell>
        <mxCell id="FJFDZiy_noSnRlDAXiye-101" style="edgeStyle=orthogonalEdgeStyle;rounded=0;orthogonalLoop=1;jettySize=auto;html=1;" edge="1" parent="FJFDZiy_noSnRlDAXiye-95">
          <mxGeometry relative="1" as="geometry">
            <mxPoint x="90" y="301" as="sourcePoint" />
            <mxPoint x="90" y="301" as="targetPoint" />
          </mxGeometry>
        </mxCell>
        <object label="Use Case Diagram,&lt;br&gt;Use Case beschrijvingen" placeholders="1" id="FJFDZiy_noSnRlDAXiye-121">
          <mxCell style="whiteSpace=wrap;html=1;strokeWidth=2;fillColor=#f5f5f5;fontStyle=1;spacingTop=0;rounded=1;arcSize=9;points=[];fontFamily=Permanent Marker;hachureGap=8;fillWeight=1;strokeColor=#666666;fontColor=#333333;" vertex="1" parent="FJFDZiy_noSnRlDAXiye-95">
            <mxGeometry x="20" y="21" width="140" height="80" as="geometry" />
          </mxCell>
        </object>
        <object label="ActivityDiagrammen" placeholders="1" id="FJFDZiy_noSnRlDAXiye-122">
          <mxCell style="whiteSpace=wrap;html=1;strokeWidth=2;fillColor=#f5f5f5;fontStyle=1;spacingTop=0;rounded=1;arcSize=9;points=[];fontFamily=Permanent Marker;hachureGap=8;fillWeight=1;strokeColor=#666666;fontColor=#333333;" vertex="1" parent="FJFDZiy_noSnRlDAXiye-95">
            <mxGeometry x="20" y="121" width="140" height="80" as="geometry" />
          </mxCell>
        </object>
        <object label="Object Model" placeholders="1" id="FJFDZiy_noSnRlDAXiye-123">
          <mxCell style="whiteSpace=wrap;html=1;strokeWidth=2;fillColor=#f5f5f5;fontStyle=1;spacingTop=0;rounded=1;arcSize=9;points=[];fontFamily=Permanent Marker;hachureGap=8;fillWeight=1;strokeColor=#666666;fontColor=#333333;" vertex="1" parent="FJFDZiy_noSnRlDAXiye-95">
            <mxGeometry x="20" y="221" width="140" height="80" as="geometry" />
          </mxCell>
        </object>
        <object label="Klassediagram /&lt;br&gt;Block Diagram" placeholders="1" id="FJFDZiy_noSnRlDAXiye-124">
          <mxCell style="whiteSpace=wrap;html=1;strokeWidth=2;fillColor=#f5f5f5;fontStyle=1;spacingTop=0;rounded=1;arcSize=9;points=[];fontFamily=Permanent Marker;hachureGap=8;fillWeight=1;strokeColor=#666666;fontColor=#333333;" vertex="1" parent="FJFDZiy_noSnRlDAXiye-95">
            <mxGeometry x="20" y="321" width="140" height="80" as="geometry" />
          </mxCell>
        </object>
        <object label="" status="New" id="FJFDZiy_noSnRlDAXiye-108">
          <mxCell style="swimlane;strokeWidth=2;fontFamily=Permanent Marker;html=0;startSize=1;verticalAlign=bottom;spacingBottom=5;points=[];childLayout=stackLayout;stackBorder=20;stackSpacing=20;resizeLast=0;resizeParent=1;horizontalStack=0;collapsible=0;strokeColor=none;fillStyle=solid;fillColor=none;" vertex="1" parent="FJFDZiy_noSnRlDAXiye-94">
            <mxGeometry x="180" y="135" width="180" height="424" as="geometry" />
          </mxCell>
        </object>
        <mxCell id="FJFDZiy_noSnRlDAXiye-109" style="edgeStyle=orthogonalEdgeStyle;rounded=0;orthogonalLoop=1;jettySize=auto;html=1;" edge="1" parent="FJFDZiy_noSnRlDAXiye-108">
          <mxGeometry relative="1" as="geometry">
            <mxPoint x="90" y="301" as="sourcePoint" />
            <mxPoint x="90" y="301" as="targetPoint" />
          </mxGeometry>
        </mxCell>
        <mxCell id="FJFDZiy_noSnRlDAXiye-110" style="edgeStyle=orthogonalEdgeStyle;rounded=0;orthogonalLoop=1;jettySize=auto;html=1;" edge="1" parent="FJFDZiy_noSnRlDAXiye-108">
          <mxGeometry relative="1" as="geometry">
            <mxPoint x="90" y="301" as="sourcePoint" />
            <mxPoint x="90" y="301" as="targetPoint" />
          </mxGeometry>
        </mxCell>
        <mxCell id="FJFDZiy_noSnRlDAXiye-111" style="edgeStyle=orthogonalEdgeStyle;rounded=0;orthogonalLoop=1;jettySize=auto;html=1;" edge="1" parent="FJFDZiy_noSnRlDAXiye-108">
          <mxGeometry relative="1" as="geometry">
            <mxPoint x="90" y="301" as="sourcePoint" />
            <mxPoint x="90" y="301" as="targetPoint" />
          </mxGeometry>
        </mxCell>
        <mxCell id="FJFDZiy_noSnRlDAXiye-112" style="edgeStyle=orthogonalEdgeStyle;rounded=0;orthogonalLoop=1;jettySize=auto;html=1;" edge="1" parent="FJFDZiy_noSnRlDAXiye-108">
          <mxGeometry relative="1" as="geometry">
            <mxPoint x="90" y="301" as="sourcePoint" />
            <mxPoint x="90" y="301" as="targetPoint" />
          </mxGeometry>
        </mxCell>
        <mxCell id="FJFDZiy_noSnRlDAXiye-113" style="edgeStyle=orthogonalEdgeStyle;rounded=0;orthogonalLoop=1;jettySize=auto;html=1;" edge="1" parent="FJFDZiy_noSnRlDAXiye-108">
          <mxGeometry relative="1" as="geometry">
            <mxPoint x="90" y="301" as="sourcePoint" />
            <mxPoint x="90" y="301" as="targetPoint" />
          </mxGeometry>
        </mxCell>
        <mxCell id="FJFDZiy_noSnRlDAXiye-114" style="edgeStyle=orthogonalEdgeStyle;rounded=0;orthogonalLoop=1;jettySize=auto;html=1;" edge="1" parent="FJFDZiy_noSnRlDAXiye-108">
          <mxGeometry relative="1" as="geometry">
            <mxPoint x="90" y="301" as="sourcePoint" />
            <mxPoint x="90" y="301" as="targetPoint" />
          </mxGeometry>
        </mxCell>
        <object label="STD&#39;s" placeholders="1" id="FJFDZiy_noSnRlDAXiye-125">
          <mxCell style="whiteSpace=wrap;html=1;strokeWidth=2;fillColor=#f5f5f5;fontStyle=1;spacingTop=0;rounded=1;arcSize=9;points=[];fontFamily=Permanent Marker;hachureGap=8;fillWeight=1;strokeColor=#666666;fontColor=#333333;" vertex="1" parent="FJFDZiy_noSnRlDAXiye-108">
            <mxGeometry x="20" y="21" width="140" height="80" as="geometry" />
          </mxCell>
        </object>
        <object label="Code Schrijven" placeholders="1" id="FJFDZiy_noSnRlDAXiye-126">
          <mxCell style="whiteSpace=wrap;html=1;strokeWidth=2;fillColor=#f5f5f5;fontStyle=1;spacingTop=0;rounded=1;arcSize=9;points=[];fontFamily=Permanent Marker;hachureGap=8;fillWeight=1;strokeColor=#666666;fontColor=#333333;" vertex="1" parent="FJFDZiy_noSnRlDAXiye-108">
            <mxGeometry x="20" y="121" width="140" height="80" as="geometry" />
          </mxCell>
        </object>
        <object label="Code Implementeren" placeholders="1" id="FJFDZiy_noSnRlDAXiye-127">
          <mxCell style="whiteSpace=wrap;html=1;strokeWidth=2;fillColor=#f5f5f5;fontStyle=1;spacingTop=0;rounded=1;arcSize=9;points=[];fontFamily=Permanent Marker;hachureGap=8;fillWeight=1;strokeColor=#666666;fontColor=#333333;" vertex="1" parent="FJFDZiy_noSnRlDAXiye-108">
            <mxGeometry x="20" y="221" width="140" height="80" as="geometry" />
          </mxCell>
        </object>
        <mxCell id="FJFDZiy_noSnRlDAXiye-130" value=" Documentatie en voorbeelden&#xa;tbv networking (zonder Mosh)" style="swimlane;fontStyle=0;childLayout=stackLayout;horizontal=1;startSize=70;horizontalStack=1;resizeParent=1;resizeParentMax=0;resizeLast=0;collapsible=0;marginBottom=0;swimlaneFillColor=none;fontFamily=Permanent Marker;fontSize=16;points=[];verticalAlign=top;stackBorder=0;resizable=1;strokeWidth=2;disableMultiStroke=1;strokeColor=default;" vertex="1" parent="NJDvE9kgN_ZWWw6jlsvr-1">
          <mxGeometry x="-200" y="715" width="360" height="390" as="geometry" />
        </mxCell>
        <object label="" status="New" id="FJFDZiy_noSnRlDAXiye-131">
          <mxCell style="swimlane;strokeWidth=2;fontFamily=Permanent Marker;html=0;startSize=1;verticalAlign=bottom;spacingBottom=5;points=[];childLayout=stackLayout;stackBorder=20;stackSpacing=20;resizeLast=0;resizeParent=1;horizontalStack=0;collapsible=0;strokeColor=none;fillStyle=solid;fillColor=none;" vertex="1" parent="FJFDZiy_noSnRlDAXiye-130">
            <mxGeometry y="70" width="180" height="321" as="geometry" />
          </mxCell>
        </object>
        <object label="Docker" placeholders="1" id="FJFDZiy_noSnRlDAXiye-163">
          <mxCell style="whiteSpace=wrap;html=1;strokeWidth=2;fontStyle=1;spacingTop=0;rounded=1;arcSize=9;points=[];fontFamily=Permanent Marker;hachureGap=8;fillWeight=1;sketch=1;curveFitting=1;jiggle=2;fillColor=#fff2cc;strokeColor=#d6b656;" vertex="1" parent="FJFDZiy_noSnRlDAXiye-131">
            <mxGeometry x="20" y="21" width="140" height="80" as="geometry" />
          </mxCell>
        </object>
        <object label="MongoDB" placeholders="1" id="FJFDZiy_noSnRlDAXiye-174">
          <mxCell style="whiteSpace=wrap;html=1;strokeWidth=2;fontStyle=1;spacingTop=0;rounded=1;arcSize=9;points=[];fontFamily=Permanent Marker;hachureGap=8;fillWeight=1;sketch=1;curveFitting=1;jiggle=2;fillColor=#fff2cc;strokeColor=#d6b656;" vertex="1" parent="FJFDZiy_noSnRlDAXiye-131">
            <mxGeometry x="20" y="121" width="140" height="80" as="geometry" />
          </mxCell>
        </object>
        <object label="Optimale Design Flow, opzet van architectuur" placeholders="1" id="FJFDZiy_noSnRlDAXiye-194">
          <mxCell style="whiteSpace=wrap;html=1;strokeWidth=2;fontStyle=1;spacingTop=0;rounded=1;arcSize=9;points=[];fontFamily=Permanent Marker;hachureGap=8;fillWeight=1;sketch=1;curveFitting=1;jiggle=2;fillColor=#fff2cc;strokeColor=#d6b656;" vertex="1" parent="FJFDZiy_noSnRlDAXiye-131">
            <mxGeometry x="20" y="221" width="140" height="80" as="geometry" />
          </mxCell>
        </object>
        <mxCell id="FJFDZiy_noSnRlDAXiye-132" style="edgeStyle=orthogonalEdgeStyle;rounded=0;orthogonalLoop=1;jettySize=auto;html=1;" edge="1" parent="FJFDZiy_noSnRlDAXiye-131">
          <mxGeometry relative="1" as="geometry">
            <mxPoint x="77" y="384" as="sourcePoint" />
            <mxPoint x="77" y="384" as="targetPoint" />
          </mxGeometry>
        </mxCell>
        <mxCell id="FJFDZiy_noSnRlDAXiye-133" style="edgeStyle=orthogonalEdgeStyle;rounded=0;orthogonalLoop=1;jettySize=auto;html=1;" edge="1" parent="FJFDZiy_noSnRlDAXiye-131">
          <mxGeometry relative="1" as="geometry">
            <mxPoint x="77" y="384" as="sourcePoint" />
            <mxPoint x="77" y="384" as="targetPoint" />
          </mxGeometry>
        </mxCell>
        <mxCell id="FJFDZiy_noSnRlDAXiye-134" style="edgeStyle=orthogonalEdgeStyle;rounded=0;orthogonalLoop=1;jettySize=auto;html=1;" edge="1" parent="FJFDZiy_noSnRlDAXiye-131">
          <mxGeometry relative="1" as="geometry">
            <mxPoint x="77" y="384" as="sourcePoint" />
            <mxPoint x="77" y="384" as="targetPoint" />
          </mxGeometry>
        </mxCell>
        <mxCell id="FJFDZiy_noSnRlDAXiye-135" style="edgeStyle=orthogonalEdgeStyle;rounded=0;orthogonalLoop=1;jettySize=auto;html=1;" edge="1" parent="FJFDZiy_noSnRlDAXiye-131">
          <mxGeometry relative="1" as="geometry">
            <mxPoint x="77" y="384" as="sourcePoint" />
            <mxPoint x="77" y="384" as="targetPoint" />
          </mxGeometry>
        </mxCell>
        <mxCell id="FJFDZiy_noSnRlDAXiye-136" style="edgeStyle=orthogonalEdgeStyle;rounded=0;orthogonalLoop=1;jettySize=auto;html=1;" edge="1" parent="FJFDZiy_noSnRlDAXiye-131">
          <mxGeometry relative="1" as="geometry">
            <mxPoint x="77" y="384" as="sourcePoint" />
            <mxPoint x="77" y="384" as="targetPoint" />
          </mxGeometry>
        </mxCell>
        <mxCell id="FJFDZiy_noSnRlDAXiye-137" style="edgeStyle=orthogonalEdgeStyle;rounded=0;orthogonalLoop=1;jettySize=auto;html=1;" edge="1" parent="FJFDZiy_noSnRlDAXiye-131">
          <mxGeometry relative="1" as="geometry">
            <mxPoint x="77" y="384" as="sourcePoint" />
            <mxPoint x="77" y="384" as="targetPoint" />
          </mxGeometry>
        </mxCell>
        <object label="" status="New" id="FJFDZiy_noSnRlDAXiye-164">
          <mxCell style="swimlane;strokeWidth=2;fontFamily=Permanent Marker;html=0;startSize=1;verticalAlign=bottom;spacingBottom=5;points=[];childLayout=stackLayout;stackBorder=20;stackSpacing=20;resizeLast=0;resizeParent=1;horizontalStack=0;collapsible=0;strokeColor=none;fillStyle=solid;fillColor=none;" vertex="1" parent="FJFDZiy_noSnRlDAXiye-130">
            <mxGeometry x="180" y="70" width="180" height="321" as="geometry" />
          </mxCell>
        </object>
        <object label="HTML, CSS" placeholders="1" id="FJFDZiy_noSnRlDAXiye-171">
          <mxCell style="whiteSpace=wrap;html=1;strokeWidth=2;fontStyle=1;spacingTop=0;rounded=1;arcSize=9;points=[];fontFamily=Permanent Marker;hachureGap=8;fillWeight=1;sketch=1;curveFitting=1;jiggle=2;fillColor=#fff2cc;strokeColor=#d6b656;" vertex="1" parent="FJFDZiy_noSnRlDAXiye-164">
            <mxGeometry x="20" y="21" width="140" height="80" as="geometry" />
          </mxCell>
        </object>
        <object label="Javascript" placeholders="1" id="FJFDZiy_noSnRlDAXiye-172">
          <mxCell style="whiteSpace=wrap;html=1;strokeWidth=2;fontStyle=1;spacingTop=0;rounded=1;arcSize=9;points=[];fontFamily=Permanent Marker;hachureGap=8;fillWeight=1;sketch=1;curveFitting=1;jiggle=2;fillColor=#fff2cc;strokeColor=#d6b656;" vertex="1" parent="FJFDZiy_noSnRlDAXiye-164">
            <mxGeometry x="20" y="121" width="140" height="80" as="geometry" />
          </mxCell>
        </object>
        <object label="Flask" placeholders="1" id="FJFDZiy_noSnRlDAXiye-173">
          <mxCell style="whiteSpace=wrap;html=1;strokeWidth=2;fontStyle=1;spacingTop=0;rounded=1;arcSize=9;points=[];fontFamily=Permanent Marker;hachureGap=8;fillWeight=1;sketch=1;curveFitting=1;jiggle=2;fillColor=#fff2cc;strokeColor=#d6b656;" vertex="1" parent="FJFDZiy_noSnRlDAXiye-164">
            <mxGeometry x="20" y="221" width="140" height="80" as="geometry" />
          </mxCell>
        </object>
        <mxCell id="FJFDZiy_noSnRlDAXiye-165" style="edgeStyle=orthogonalEdgeStyle;rounded=0;orthogonalLoop=1;jettySize=auto;html=1;" edge="1" parent="FJFDZiy_noSnRlDAXiye-164">
          <mxGeometry relative="1" as="geometry">
            <mxPoint x="82" y="380" as="sourcePoint" />
            <mxPoint x="82" y="380" as="targetPoint" />
          </mxGeometry>
        </mxCell>
        <mxCell id="FJFDZiy_noSnRlDAXiye-166" style="edgeStyle=orthogonalEdgeStyle;rounded=0;orthogonalLoop=1;jettySize=auto;html=1;" edge="1" parent="FJFDZiy_noSnRlDAXiye-164">
          <mxGeometry relative="1" as="geometry">
            <mxPoint x="82" y="380" as="sourcePoint" />
            <mxPoint x="82" y="380" as="targetPoint" />
          </mxGeometry>
        </mxCell>
        <mxCell id="FJFDZiy_noSnRlDAXiye-167" style="edgeStyle=orthogonalEdgeStyle;rounded=0;orthogonalLoop=1;jettySize=auto;html=1;" edge="1" parent="FJFDZiy_noSnRlDAXiye-164">
          <mxGeometry relative="1" as="geometry">
            <mxPoint x="82" y="380" as="sourcePoint" />
            <mxPoint x="82" y="380" as="targetPoint" />
          </mxGeometry>
        </mxCell>
        <mxCell id="FJFDZiy_noSnRlDAXiye-168" style="edgeStyle=orthogonalEdgeStyle;rounded=0;orthogonalLoop=1;jettySize=auto;html=1;" edge="1" parent="FJFDZiy_noSnRlDAXiye-164">
          <mxGeometry relative="1" as="geometry">
            <mxPoint x="82" y="380" as="sourcePoint" />
            <mxPoint x="82" y="380" as="targetPoint" />
          </mxGeometry>
        </mxCell>
        <mxCell id="FJFDZiy_noSnRlDAXiye-169" style="edgeStyle=orthogonalEdgeStyle;rounded=0;orthogonalLoop=1;jettySize=auto;html=1;" edge="1" parent="FJFDZiy_noSnRlDAXiye-164">
          <mxGeometry relative="1" as="geometry">
            <mxPoint x="82" y="380" as="sourcePoint" />
            <mxPoint x="82" y="380" as="targetPoint" />
          </mxGeometry>
        </mxCell>
        <mxCell id="FJFDZiy_noSnRlDAXiye-170" style="edgeStyle=orthogonalEdgeStyle;rounded=0;orthogonalLoop=1;jettySize=auto;html=1;" edge="1" parent="FJFDZiy_noSnRlDAXiye-164">
          <mxGeometry relative="1" as="geometry">
            <mxPoint x="82" y="380" as="sourcePoint" />
            <mxPoint x="82" y="380" as="targetPoint" />
          </mxGeometry>
        </mxCell>
        <mxCell id="FJFDZiy_noSnRlDAXiye-154" value=" Documentatie&#xa;Agile / Scrum" style="swimlane;fontStyle=0;childLayout=stackLayout;horizontal=1;startSize=55;horizontalStack=1;resizeParent=1;resizeParentMax=0;resizeLast=0;collapsible=0;marginBottom=0;swimlaneFillColor=none;fontFamily=Permanent Marker;fontSize=16;points=[];verticalAlign=top;stackBorder=0;resizable=1;strokeWidth=2;disableMultiStroke=1;strokeColor=default;" vertex="1" parent="NJDvE9kgN_ZWWw6jlsvr-1">
          <mxGeometry x="-243" y="1142" width="180" height="290" as="geometry" />
        </mxCell>
        <object label="" status="New" id="FJFDZiy_noSnRlDAXiye-155">
          <mxCell style="swimlane;strokeWidth=2;fontFamily=Permanent Marker;html=0;startSize=1;verticalAlign=bottom;spacingBottom=5;points=[];childLayout=stackLayout;stackBorder=20;stackSpacing=20;resizeLast=0;resizeParent=1;horizontalStack=0;collapsible=0;strokeColor=none;fillStyle=solid;fillColor=none;" vertex="1" parent="FJFDZiy_noSnRlDAXiye-154">
            <mxGeometry y="55" width="180" height="235" as="geometry" />
          </mxCell>
        </object>
        <mxCell id="FJFDZiy_noSnRlDAXiye-156" style="edgeStyle=orthogonalEdgeStyle;rounded=0;orthogonalLoop=1;jettySize=auto;html=1;" edge="1" parent="FJFDZiy_noSnRlDAXiye-155">
          <mxGeometry relative="1" as="geometry">
            <mxPoint x="90" y="301" as="sourcePoint" />
            <mxPoint x="90" y="301" as="targetPoint" />
          </mxGeometry>
        </mxCell>
        <mxCell id="FJFDZiy_noSnRlDAXiye-157" style="edgeStyle=orthogonalEdgeStyle;rounded=0;orthogonalLoop=1;jettySize=auto;html=1;" edge="1" parent="FJFDZiy_noSnRlDAXiye-155">
          <mxGeometry relative="1" as="geometry">
            <mxPoint x="90" y="301" as="sourcePoint" />
            <mxPoint x="90" y="301" as="targetPoint" />
          </mxGeometry>
        </mxCell>
        <mxCell id="FJFDZiy_noSnRlDAXiye-158" style="edgeStyle=orthogonalEdgeStyle;rounded=0;orthogonalLoop=1;jettySize=auto;html=1;" edge="1" parent="FJFDZiy_noSnRlDAXiye-155">
          <mxGeometry relative="1" as="geometry">
            <mxPoint x="90" y="301" as="sourcePoint" />
            <mxPoint x="90" y="301" as="targetPoint" />
          </mxGeometry>
        </mxCell>
        <mxCell id="FJFDZiy_noSnRlDAXiye-159" style="edgeStyle=orthogonalEdgeStyle;rounded=0;orthogonalLoop=1;jettySize=auto;html=1;" edge="1" parent="FJFDZiy_noSnRlDAXiye-155">
          <mxGeometry relative="1" as="geometry">
            <mxPoint x="90" y="301" as="sourcePoint" />
            <mxPoint x="90" y="301" as="targetPoint" />
          </mxGeometry>
        </mxCell>
        <mxCell id="FJFDZiy_noSnRlDAXiye-160" style="edgeStyle=orthogonalEdgeStyle;rounded=0;orthogonalLoop=1;jettySize=auto;html=1;" edge="1" parent="FJFDZiy_noSnRlDAXiye-155">
          <mxGeometry relative="1" as="geometry">
            <mxPoint x="90" y="301" as="sourcePoint" />
            <mxPoint x="90" y="301" as="targetPoint" />
          </mxGeometry>
        </mxCell>
        <mxCell id="FJFDZiy_noSnRlDAXiye-161" style="edgeStyle=orthogonalEdgeStyle;rounded=0;orthogonalLoop=1;jettySize=auto;html=1;" edge="1" parent="FJFDZiy_noSnRlDAXiye-155">
          <mxGeometry relative="1" as="geometry">
            <mxPoint x="90" y="301" as="sourcePoint" />
            <mxPoint x="90" y="301" as="targetPoint" />
          </mxGeometry>
        </mxCell>
        <object label="Scrum Proces&lt;br&gt;[uit Scrum for Schools]" placeholders="1" id="FJFDZiy_noSnRlDAXiye-197">
          <mxCell style="whiteSpace=wrap;html=1;strokeWidth=2;fillColor=#f5f5f5;fontStyle=1;spacingTop=0;rounded=1;arcSize=9;points=[];fontFamily=Permanent Marker;hachureGap=8;fillWeight=1;strokeColor=#666666;fontColor=#333333;" vertex="1" parent="FJFDZiy_noSnRlDAXiye-155">
            <mxGeometry x="20" y="21" width="140" height="80" as="geometry" />
          </mxCell>
        </object>
        <object label="User Stories&lt;br&gt;[uit Thema Opracht Gaming]" placeholders="1" id="FJFDZiy_noSnRlDAXiye-162">
          <mxCell style="whiteSpace=wrap;html=1;strokeWidth=2;fillColor=#f5f5f5;fontStyle=1;spacingTop=0;rounded=1;arcSize=9;points=[];fontFamily=Permanent Marker;hachureGap=8;fillWeight=1;strokeColor=#666666;fontColor=#333333;" vertex="1" parent="FJFDZiy_noSnRlDAXiye-155">
            <mxGeometry x="20" y="121" width="140" height="80" as="geometry" />
          </mxCell>
        </object>
        <mxCell id="FJFDZiy_noSnRlDAXiye-184" value="&lt;b&gt;sprint 1&lt;/b&gt;" style="text;html=1;strokeColor=none;fillColor=none;align=center;verticalAlign=middle;whiteSpace=wrap;rounded=0;" vertex="1" parent="NJDvE9kgN_ZWWw6jlsvr-1">
          <mxGeometry x="220" y="410" width="60" height="30" as="geometry" />
        </mxCell>
        <mxCell id="FJFDZiy_noSnRlDAXiye-185" value="&lt;b&gt;sprint 2&lt;/b&gt;" style="text;html=1;strokeColor=none;fillColor=none;align=center;verticalAlign=middle;whiteSpace=wrap;rounded=0;" vertex="1" parent="NJDvE9kgN_ZWWw6jlsvr-1">
          <mxGeometry x="220" y="510" width="60" height="30" as="geometry" />
        </mxCell>
        <mxCell id="FJFDZiy_noSnRlDAXiye-186" value="&lt;b&gt;sprint 3&lt;/b&gt;" style="text;html=1;strokeColor=none;fillColor=none;align=center;verticalAlign=middle;whiteSpace=wrap;rounded=0;" vertex="1" parent="NJDvE9kgN_ZWWw6jlsvr-1">
          <mxGeometry x="220" y="610" width="60" height="30" as="geometry" />
        </mxCell>
        <mxCell id="FJFDZiy_noSnRlDAXiye-187" value="&lt;b&gt;sprint 4&lt;/b&gt;" style="text;html=1;strokeColor=none;fillColor=none;align=center;verticalAlign=middle;whiteSpace=wrap;rounded=0;" vertex="1" parent="NJDvE9kgN_ZWWw6jlsvr-1">
          <mxGeometry x="220" y="710" width="60" height="30" as="geometry" />
        </mxCell>
        <mxCell id="FJFDZiy_noSnRlDAXiye-188" value="&lt;b&gt;sprint 5&lt;/b&gt;" style="text;html=1;strokeColor=none;fillColor=none;align=center;verticalAlign=middle;whiteSpace=wrap;rounded=0;" vertex="1" parent="NJDvE9kgN_ZWWw6jlsvr-1">
          <mxGeometry x="220" y="810" width="60" height="30" as="geometry" />
        </mxCell>
        <mxCell id="FJFDZiy_noSnRlDAXiye-189" value="&lt;b&gt;sprint 6&lt;/b&gt;" style="text;html=1;strokeColor=none;fillColor=none;align=center;verticalAlign=middle;whiteSpace=wrap;rounded=0;" vertex="1" parent="NJDvE9kgN_ZWWw6jlsvr-1">
          <mxGeometry x="220" y="910" width="60" height="30" as="geometry" />
        </mxCell>
        <mxCell id="FJFDZiy_noSnRlDAXiye-190" value="&lt;b&gt;sprint 7&lt;/b&gt;" style="text;html=1;strokeColor=none;fillColor=none;align=center;verticalAlign=middle;whiteSpace=wrap;rounded=0;" vertex="1" parent="NJDvE9kgN_ZWWw6jlsvr-1">
          <mxGeometry x="220" y="1010" width="60" height="30" as="geometry" />
        </mxCell>
        <mxCell id="FJFDZiy_noSnRlDAXiye-191" value="&lt;b&gt;sprint 8&lt;/b&gt;" style="text;html=1;strokeColor=none;fillColor=none;align=center;verticalAlign=middle;whiteSpace=wrap;rounded=0;" vertex="1" parent="NJDvE9kgN_ZWWw6jlsvr-1">
          <mxGeometry x="220" y="1110" width="60" height="30" as="geometry" />
        </mxCell>
        <mxCell id="FJFDZiy_noSnRlDAXiye-193" style="rounded=0;orthogonalLoop=1;jettySize=auto;html=1;endArrow=none;endFill=0;" edge="1" parent="NJDvE9kgN_ZWWw6jlsvr-1" source="FJFDZiy_noSnRlDAXiye-192" target="FJFDZiy_noSnRlDAXiye-49">
          <mxGeometry relative="1" as="geometry" />
        </mxCell>
        <object label="Oefening &quot;Kleine Waterval&quot; op submodule" placeholders="1" id="FJFDZiy_noSnRlDAXiye-192">
          <mxCell style="whiteSpace=wrap;html=1;strokeWidth=2;fillColor=#f5f5f5;fontStyle=1;spacingTop=0;rounded=1;arcSize=9;points=[];fontFamily=Permanent Marker;hachureGap=8;fillWeight=1;strokeColor=#666666;fontColor=#333333;" vertex="1" parent="NJDvE9kgN_ZWWw6jlsvr-1">
            <mxGeometry x="490" y="889" width="70" height="181" as="geometry" />
          </mxCell>
        </object>
        <mxCell id="FJFDZiy_noSnRlDAXiye-198" value="" style="endArrow=none;dashed=1;html=1;dashPattern=1 3;strokeWidth=2;rounded=0;" edge="1" parent="NJDvE9kgN_ZWWw6jlsvr-1" source="FJFDZiy_noSnRlDAXiye-130" target="FJFDZiy_noSnRlDAXiye-199">
          <mxGeometry width="50" height="50" relative="1" as="geometry">
            <mxPoint x="129" y="1031" as="sourcePoint" />
            <mxPoint x="-273" y="1064" as="targetPoint" />
          </mxGeometry>
        </mxCell>
        <mxCell id="FJFDZiy_noSnRlDAXiye-199" value="Canvas toegang vragen&lt;br&gt;&amp;nbsp;bij SD cursussen" style="shape=note;size=15;align=left;spacingLeft=10;html=1;whiteSpace=wrap;sketch=1;curveFitting=1;jiggle=2;" vertex="1" parent="NJDvE9kgN_ZWWw6jlsvr-1">
          <mxGeometry x="-387" y="952" width="160" height="62" as="geometry" />
        </mxCell>
        <object label="Kennis sessies&lt;br&gt;elec-&lt;br&gt;tronica" placeholders="1" id="FJFDZiy_noSnRlDAXiye-201">
          <mxCell style="whiteSpace=wrap;html=1;strokeWidth=2;fontStyle=1;spacingTop=0;rounded=1;arcSize=9;points=[];fontFamily=Permanent Marker;hachureGap=8;fillWeight=1;dashed=1;" vertex="1" parent="NJDvE9kgN_ZWWw6jlsvr-1">
            <mxGeometry x="487" y="389" width="46" height="176" as="geometry" />
          </mxCell>
        </object>
        <object label="Workshop PID" placeholders="1" id="FJFDZiy_noSnRlDAXiye-202">
          <mxCell style="whiteSpace=wrap;html=1;strokeWidth=2;fontStyle=1;spacingTop=0;rounded=1;arcSize=9;points=[];fontFamily=Permanent Marker;hachureGap=8;fillWeight=1;dashed=1;" vertex="1" parent="NJDvE9kgN_ZWWw6jlsvr-1">
            <mxGeometry x="490" y="578" width="56" height="38" as="geometry" />
          </mxCell>
        </object>
        <object label="Bespre-kingen&lt;br&gt;CSM&lt;br&gt;oefe-ningen" placeholders="1" id="FJFDZiy_noSnRlDAXiye-203">
          <mxCell style="whiteSpace=wrap;html=1;strokeWidth=2;fontStyle=1;spacingTop=0;rounded=1;arcSize=9;points=[];fontFamily=Permanent Marker;hachureGap=8;fillWeight=1;dashed=1;" vertex="1" parent="NJDvE9kgN_ZWWw6jlsvr-1">
            <mxGeometry x="546" y="493" width="40" height="264" as="geometry" />
          </mxCell>
        </object>
        <object label="ESP32&lt;br&gt;workshops" placeholders="1" id="FJFDZiy_noSnRlDAXiye-204">
          <mxCell style="whiteSpace=wrap;html=1;strokeWidth=2;fontStyle=1;spacingTop=0;rounded=1;arcSize=9;points=[];fontFamily=Permanent Marker;hachureGap=8;fillWeight=1;dashed=1;" vertex="1" parent="NJDvE9kgN_ZWWw6jlsvr-1">
            <mxGeometry x="487" y="631" width="56" height="95" as="geometry" />
          </mxCell>
        </object>
        <object label="Optionele&lt;br&gt;workshops" placeholders="1" id="FJFDZiy_noSnRlDAXiye-206">
          <mxCell style="whiteSpace=wrap;html=1;strokeWidth=2;fontStyle=1;spacingTop=0;rounded=1;arcSize=9;points=[];fontFamily=Permanent Marker;hachureGap=8;fillWeight=1;dashed=1;" vertex="1" parent="NJDvE9kgN_ZWWw6jlsvr-1">
            <mxGeometry x="490" y="745" width="56" height="120" as="geometry" />
          </mxCell>
        </object>
        <object label="Optionele&lt;br&gt;workshops" placeholders="1" id="FJFDZiy_noSnRlDAXiye-207">
          <mxCell style="whiteSpace=wrap;html=1;strokeWidth=2;fontStyle=1;spacingTop=0;rounded=1;arcSize=9;points=[];fontFamily=Permanent Marker;hachureGap=8;fillWeight=1;dashed=1;" vertex="1" parent="NJDvE9kgN_ZWWw6jlsvr-1">
            <mxGeometry x="490" y="1085" width="62" height="375" as="geometry" />
          </mxCell>
        </object>
        <mxCell id="FJFDZiy_noSnRlDAXiye-211" value="&lt;b&gt;Week 18&lt;/b&gt;" style="text;html=1;strokeColor=none;fillColor=none;align=center;verticalAlign=middle;whiteSpace=wrap;rounded=0;" vertex="1" parent="NJDvE9kgN_ZWWw6jlsvr-1">
          <mxGeometry x="220" y="1213" width="60" height="30" as="geometry" />
        </mxCell>
        <mxCell id="FJFDZiy_noSnRlDAXiye-212" value="&lt;b&gt;Week 19&lt;/b&gt;" style="text;html=1;strokeColor=none;fillColor=none;align=center;verticalAlign=middle;whiteSpace=wrap;rounded=0;" vertex="1" parent="NJDvE9kgN_ZWWw6jlsvr-1">
          <mxGeometry x="222" y="1308" width="60" height="30" as="geometry" />
        </mxCell>
        <mxCell id="FJFDZiy_noSnRlDAXiye-213" value="&lt;b&gt;Week 20&lt;/b&gt;" style="text;html=1;strokeColor=none;fillColor=none;align=center;verticalAlign=middle;whiteSpace=wrap;rounded=0;" vertex="1" parent="NJDvE9kgN_ZWWw6jlsvr-1">
          <mxGeometry x="224" y="1413" width="60" height="30" as="geometry" />
        </mxCell>
        <mxCell id="FJFDZiy_noSnRlDAXiye-214" value="&lt;b&gt;Legenda:&lt;/b&gt;" style="text;html=1;strokeColor=none;fillColor=none;align=center;verticalAlign=middle;whiteSpace=wrap;rounded=0;" vertex="1" parent="NJDvE9kgN_ZWWw6jlsvr-1">
          <mxGeometry x="-401" y="94" width="60" height="30" as="geometry" />
        </mxCell>
        <object label="Ligt klaar" placeholders="1" id="FJFDZiy_noSnRlDAXiye-215">
          <mxCell style="whiteSpace=wrap;html=1;strokeWidth=2;fillColor=#f5f5f5;fontStyle=1;spacingTop=0;rounded=1;arcSize=9;points=[];fontFamily=Permanent Marker;hachureGap=8;fillWeight=1;strokeColor=#666666;fontColor=#333333;" vertex="1" parent="NJDvE9kgN_ZWWw6jlsvr-1">
            <mxGeometry x="-397" y="120" width="138" height="27" as="geometry" />
          </mxCell>
        </object>
        <object label="Ligt niet klaar,&lt;br&gt;maar heeft geen prioriteit" placeholders="1" id="FJFDZiy_noSnRlDAXiye-216">
          <mxCell style="whiteSpace=wrap;html=1;strokeWidth=2;fillColor=#f5f5f5;fontStyle=1;spacingTop=0;rounded=1;arcSize=9;points=[];fontFamily=Permanent Marker;hachureGap=8;fillWeight=1;strokeColor=#666666;fontColor=#333333;sketch=1;curveFitting=1;jiggle=2;" vertex="1" parent="NJDvE9kgN_ZWWw6jlsvr-1">
            <mxGeometry x="-397" y="156" width="138" height="39" as="geometry" />
          </mxCell>
        </object>
        <object label="Ligt niet klaar&lt;br&gt;en heeft prioriteit" placeholders="1" id="FJFDZiy_noSnRlDAXiye-217">
          <mxCell style="whiteSpace=wrap;html=1;strokeWidth=2;fillColor=#fff2cc;fontStyle=1;spacingTop=0;rounded=1;arcSize=9;points=[];fontFamily=Permanent Marker;hachureGap=8;fillWeight=1;strokeColor=#d6b656;sketch=1;curveFitting=1;jiggle=2;" vertex="1" parent="NJDvE9kgN_ZWWw6jlsvr-1">
            <mxGeometry x="-397" y="204" width="138" height="35" as="geometry" />
          </mxCell>
        </object>
        <object label="Plenaire aangelegenheden" placeholders="1" id="FJFDZiy_noSnRlDAXiye-218">
          <mxCell style="whiteSpace=wrap;html=1;strokeWidth=2;fillColor=none;fontStyle=1;spacingTop=0;rounded=1;arcSize=9;points=[];fontFamily=Permanent Marker;hachureGap=8;fillWeight=1;strokeColor=#666666;fontColor=#333333;dashed=1;" vertex="1" parent="NJDvE9kgN_ZWWw6jlsvr-1">
            <mxGeometry x="-397" y="249" width="138" height="27" as="geometry" />
          </mxCell>
        </object>
      </root>
    </mxGraphModel>
  </diagram>
</mxfile>
